<?xml version="1.0" encoding="utf-8"?>
<!-- Generator: Adobe Illustrator 27.9.0, SVG Export Plug-In . SVG Version: 6.00 Build 0)  -->
<svg version="1.0" id="Layer_1" xmlns="http://www.w3.org/2000/svg" xmlns:xlink="http://www.w3.org/1999/xlink" x="0px" y="0px"
	 viewBox="0 0 26.3 26" style="enable-background:new 0 0 26.3 26;" xml:space="preserve">
<style type="text/css">
	.st0{fill:#950000;}
	.st1{fill:#011F5B;}
</style>
<g>
	<g>
		<path class="st0" d="M13.1,26C5.9,26,0,20.2,0,13S5.9,0,13.1,0s13.1,5.8,13.1,13S20.4,26,13.1,26z M13.1,1.2
			c-6.6,0-12,5.3-12,11.9s5.4,11.9,12,11.9s12-5.3,12-11.9S19.7,1.2,13.1,1.2z"/>
	</g>
	<path class="st1" d="M20.1,8.5c0-3-2.6-5.4-5.9-5.4H7.3v19.5h2.8V14h2.5l4.4,8.6h3.3l-4.7-8.9C18.2,13.2,20.1,11,20.1,8.5z
		 M10.1,5.6h3.9c1.9,0,3.1,1.2,3.1,2.9c0,1.7-1.3,2.9-3.1,2.9h-4V5.6z"/>
</g>
</svg>
