<?xml version="1.0" encoding="utf-8"?>
<!-- Generator: Adobe Illustrator 27.9.0, SVG Export Plug-In . SVG Version: 6.00 Build 0)  -->
<svg version="1.0" id="Layer_1" xmlns="http://www.w3.org/2000/svg" xmlns:xlink="http://www.w3.org/1999/xlink" x="0px" y="0px"
	 viewBox="0 0 34.2 20.7" style="enable-background:new 0 0 34.2 20.7;" xml:space="preserve">
<style type="text/css">
	.st0{fill:#FFFFFF;}
	.st1{fill:#950000;}
</style>
<g>
	<path class="st0" d="M17.1,2.6c-4.3,0-7.8,3.5-7.8,7.8s3.5,7.8,7.8,7.8s7.8-3.5,7.8-7.8S21.4,2.6,17.1,2.6z M17.1,14
		c-2,0-3.6-1.6-3.6-3.6s1.6-3.6,3.6-3.6s3.6,1.6,3.6,3.6S19.1,14,17.1,14z"/>
	<path class="st1" d="M17.1,0C9.7,0,3.2,4.2,0,10.3c3.2,6.1,9.7,10.3,17.1,10.3c7.5,0,13.9-4.2,17.1-10.3C31,4.2,24.6,0,17.1,0z
		 M17.1,18.1c-4.3,0-7.8-3.5-7.8-7.8s3.5-7.8,7.8-7.8S25,6.1,25,10.3S21.4,18.1,17.1,18.1z"/>
</g>
</svg>
