<?xml version="1.0" encoding="utf-8"?>
<!-- Generator: Adobe Illustrator 27.9.0, SVG Export Plug-In . SVG Version: 6.00 Build 0)  -->
<svg version="1.0" id="Layer_1" xmlns="http://www.w3.org/2000/svg" xmlns:xlink="http://www.w3.org/1999/xlink" x="0px" y="0px"
	 viewBox="0 0 31.4 30.1" style="enable-background:new 0 0 31.4 30.1;" xml:space="preserve">
<style type="text/css">
	.st0{fill:#950000;}
	.st1{fill:#011F5B;}
</style>
<g>
	<path class="st0" d="M28.7,21.9c0,4.2-3.4,7.6-7.6,7.6s-7.6-3.4-7.6-7.6c0-2.3,1.1-4.4,2.8-5.8c0,0,1,3.9,5.6,4.8
		c4.2,0.8,6.3-1.7,6.3-1.7C28.5,19.9,28.7,20.9,28.7,21.9z"/>
	<path class="st1" d="M31.4,13.6c0-4.4-3.6-8.1-8-8.1C22.2,2.3,19.2,0,15.7,0c-3.5,0-6.5,2.2-7.6,5.3C3.6,5.4,0,9,0,13.4
		c0,2.5,1.2,4.8,3,6.3c-0.2,0.7-0.3,1.4-0.3,2.1c0,4.5,3.6,8.1,8.1,8.1c1.9,0,3.7-0.7,5-1.8c1.4,1.2,3.2,1.9,5.2,1.9
		c4.5,0,8.1-3.6,8.1-8.1c0-0.8-0.1-1.6-0.4-2.4C30.4,18.1,31.4,16,31.4,13.6z M27.9,22c0,3.8-3.1,6.8-6.8,6.8
		c-1.6,0-3.1-0.6-4.2-1.5c-0.2-0.1-0.3-0.3-0.5-0.4c-0.2-0.1-0.3-0.3-0.4-0.5c-1-1.2-1.7-2.8-1.7-4.5c0-1.8,0.7-3.4,1.8-4.6
		c0,0,0.1-0.1,0.1-0.1c0.5,0.9,1.1,1.7,1.9,2.4c0.3,0.2,0.5,0.4,0.8,0.6c1.3,0.9,2.9,1.4,4.5,1.4c1.6,0,3.1-0.5,4.4-1.3
		C27.8,20.9,27.9,21.4,27.9,22z M10.8,28.7C7,28.7,4,25.6,4,21.9c0-0.5,0-0.9,0.1-1.4c1.2,0.7,2.5,1.1,4,1.1c2,0,3.8-0.7,5.2-1.9
		c-0.2,0.7-0.3,1.5-0.3,2.3c0,2,0.8,3.9,2,5.3C13.8,28.2,12.4,28.7,10.8,28.7z M7.7,6.6c0.1,0,0.3,0,0.4,0c0.1,0,0.2,0,0.2,0
		c0.2,0,0.4,0,0.6,0.1c3.4,0.4,6,3.3,6,6.8c0,0.5,0,0.9-0.1,1.4c0,0,0,0,0,0c0,0.2-0.1,0.4-0.2,0.6c0,0,0,0,0,0
		c-0.1,0.2-0.1,0.4-0.2,0.6c0,0,0,0,0,0c-1,2.5-3.5,4.2-6.3,4.2c-1.3,0-2.6-0.4-3.6-1C4.3,19.1,4.1,19,4,18.9
		c-0.2-0.1-0.3-0.3-0.5-0.4c-1.4-1.2-2.2-3-2.2-5C1.3,9.8,4.1,6.8,7.7,6.6z M22,5.6c0.1,0.2,0.1,0.4,0.2,0.6
		c0.1,0.2,0.1,0.4,0.1,0.6c0.1,0.4,0.1,0.8,0.1,1.2c0,2.7-1.5,5-3.8,6.1c-0.4,0.1-0.8,0.3-1.1,0.4c-0.3,0.1-0.7,0.2-1,0.2
		c-0.2,0-0.3,0-0.5,0c0.1-0.5,0.1-1,0.1-1.5c0-0.5-0.1-1.1-0.2-1.6c-0.1-0.4-0.2-0.7-0.3-1.1c-1-2.8-3.4-4.8-6.4-5.3
		c1-2.5,3.5-4.2,6.3-4.2C18.6,1.3,21,3.1,22,5.6z M27.8,18.8c-0.2,0.1-0.3,0.3-0.5,0.4c-1.1,0.8-2.5,1.3-4,1.3c-2.8,0-5.2-1.7-6.2-4
		c0-0.1-0.1-0.2-0.1-0.3c0.4-0.1,0.7-0.1,1.1-0.2c0.4-0.1,0.8-0.3,1.1-0.4c0.5-0.2,1-0.5,1.4-0.9c0.3-0.2,0.5-0.4,0.7-0.6
		c1.5-1.5,2.4-3.5,2.4-5.8c0-0.4,0-0.9-0.1-1.3c3.6,0.2,6.5,3.2,6.5,6.8c0,1.8-0.7,3.5-1.9,4.7C28.1,18.5,27.9,18.6,27.8,18.8z"/>
</g>
</svg>
