<?xml version="1.0" encoding="utf-8"?>
<!-- Generator: Adobe Illustrator 27.9.0, SVG Export Plug-In . SVG Version: 6.00 Build 0)  -->
<svg version="1.0" id="Layer_1" xmlns="http://www.w3.org/2000/svg" xmlns:xlink="http://www.w3.org/1999/xlink" x="0px" y="0px"
	 viewBox="0 0 313.6 78.9" style="enable-background:new 0 0 313.6 78.9;" xml:space="preserve">
<style type="text/css">
	.st0{fill:none;stroke:#2F4972;stroke-width:0.9344;stroke-miterlimit:10;}
	.st1{fill:#EEEEEC;}
	.st2{fill:#FFFFFF;}
	.st3{fill:#910000;}
	.st4{fill:#011F5B;}
</style>
<g>
	<line class="st0" x1="148.8" y1="0" x2="148.8" y2="78.9"/>
	<g>
		<g>
			<path class="st1" d="M180.1,59.4c-0.5,0.1-0.7-0.1-0.8-0.6c-0.1-0.3-0.1-0.6-0.1-0.9c0-1.4,0-2.8,0-4.2c0-0.4,0-0.8-0.1-1.2
				c-0.2-1.1-0.8-1.7-1.9-2c-1.2-0.3-2.4-0.2-3.6,0.2c-0.5,0.2-0.8,0.4-0.9,1c0,0.1-0.1,0.2-0.1,0.3c-0.2,0.7-0.3,0.6,0.5,0.8
				c0.5,0.1,0.5,0.1,0.7-0.3c0.3-0.4,0.5-0.8,0.9-1.2c0.9-0.8,2.1-0.4,2.5,0.7c0.2,0.5,0.2,1.1,0.2,1.6c0,0.1-0.1,0.2-0.2,0.2
				c-0.2,0.1-0.5,0.2-0.7,0.3c-1,0.4-2.1,0.8-3,1.3c-1.1,0.6-1.7,1.5-1.6,2.8c0.1,0.9,0.5,1.7,1.3,2.1c0.9,0.4,1.7,0.4,2.5-0.2
				c0.3-0.2,0.6-0.4,0.9-0.6c0.3-0.2,0.5-0.4,0.8-0.5c0.2,0.5,0.3,0.9,0.5,1.3c0,0.1,0.2,0.1,0.3,0.1c0.8-0.3,1.7-0.5,2.5-0.8
				c0.1,0,0.1-0.1,0.1-0.2c0-0.1,0-0.2-0.1-0.4C180.3,59.3,180.2,59.4,180.1,59.4z M177.2,57.9c-0.3,1-0.9,1.6-1.8,1.6
				c-1,0.1-1.7-0.6-1.8-1.6c0-0.8,0.3-1.5,0.9-2c0.2-0.2,0.5-0.3,0.7-0.4c0.7-0.3,1.4-0.6,2.1-0.9C177.3,55.8,177.5,56.8,177.2,57.9
				z"/>
			<path class="st1" d="M203.2,59.3c-0.6,0.1-0.9,0-1-0.7c0-0.3,0-0.6-0.1-0.9c0-3.7,0-7.5,0-11.2c0-0.2,0-0.3,0-0.4
				c-1.1,0.2-2.2,0.3-3.3,0.5c0,0.1,0,0.3,0,0.5c0.3,0,0.5,0,0.8,0c0.5,0,0.7,0.2,0.8,0.7c0,0.6,0,1.2,0,1.7c0,0.4,0,0.7,0,1.1
				c-0.5-0.1-0.9-0.2-1.4-0.2c-1.6-0.2-3.1,0.1-4.4,1.2c-2,1.7-2.3,5.2-0.6,7.4c1.3,1.7,3.3,2.1,5.1,1c0.4-0.2,0.8-0.5,1.1-0.7
				c0.1,0.4,0.2,0.7,0.3,1.1c0.1,0.2,0.2,0.3,0.4,0.2c0.7-0.2,1.5-0.5,2.2-0.7c0.1,0,0.2-0.1,0.4-0.1c-0.1-0.2-0.1-0.3-0.1-0.5
				C203.4,59.3,203.3,59.3,203.2,59.3z M200.4,55.1C200.4,55.1,200.4,55.1,200.4,55.1c0,0.7,0,1.5,0,2.2c0,1.3-0.6,2-1.9,2.3
				c-1,0.2-1.8-0.2-2.5-1c-0.6-0.7-0.9-1.6-1-2.6c-0.2-1.3-0.1-2.5,0.6-3.6c1-1.6,3.2-1.8,4.5-0.5c0.2,0.2,0.3,0.5,0.3,0.8
				C200.4,53.5,200.4,54.3,200.4,55.1z"/>
			<path class="st1" d="M191.6,58.9c0-0.5,0-1,0-1.5c0-1.5,0-3.1-0.1-4.6c-0.1-1.1-0.8-2-2-2.2c-1.3-0.2-2.6,0-3.7,0.7
				c-0.4,0.2-0.7,0.5-1.1,0.9c0-0.6,0-1.1,0-1.5c-1.1,0.3-2.2,0.5-3.3,0.8c0,0.1,0,0.2,0,0.4c0.3,0,0.6,0,0.9,0.1
				c0.3,0,0.6,0.2,0.6,0.6c0,0.2,0,0.4,0,0.5c0,1.7,0,3.4,0,5.1c0,0.3,0,0.7,0,1c0,0.4-0.2,0.7-0.7,0.8c-0.3,0.1-0.6,0.1-0.8,0.2
				c0,0.2,0,0.3,0,0.5c1.6,0,3.3,0,4.9,0c0-0.2,0-0.3,0-0.5c-0.2,0-0.3-0.1-0.5-0.1c-0.9-0.2-1.1-0.3-1.1-1.2c0-1.4,0-2.8,0-4.1
				c0-0.6,0.2-1.2,0.4-1.8c0.5-1.1,1.7-1.5,3.1-1.3c0.7,0.1,1.2,0.5,1.4,1.2c0.1,0.3,0.2,0.5,0.2,0.8c0,1.8,0,3.6,0,5.4
				c0,0.6-0.2,0.8-0.8,0.9c-0.2,0-0.5,0.1-0.7,0.1c0,0.2,0,0.3,0,0.5c1.6,0,3.3,0,4.9,0c0-0.2,0-0.3,0-0.5c-0.2,0-0.4-0.1-0.6-0.1
				C191.7,59.8,191.6,59.6,191.6,58.9z"/>
		</g>
		<g>
			<path class="st1" d="M224.4,47.4c-1.1-0.9-2.8-1.3-4.9-1.3l-2.4,0c-0.5,0-1.3,0-2.3,0c-1.8,0-3.1,0-4-0.1l-0.1,0l-0.2,0.9l0.1,0
				c0.8,0,1.4,0.1,1.7,0.3c0.3,0.2,0.4,0.4,0.4,0.8c0,0.2-0.1,0.8-0.3,1.5l-4.3,16.1c-0.2,0.8-0.4,1.4-0.7,1.8
				c-0.2,0.3-0.5,0.6-0.9,0.7c-0.4,0.1-1,0.2-1.7,0.3l-0.1,0l-0.2,0.9l0.2,0c0.9-0.1,2.3-0.1,4.2-0.1c1.7,0,3,0,4,0.1l0.1,0l0.2-0.9
				l-0.1,0c-0.8,0-1.4-0.1-1.7-0.3c-0.3-0.2-0.4-0.4-0.4-0.8c0-0.2,0-0.5,0.1-0.8c0.1-0.4,0.2-0.6,0.2-0.8l1.5-5.7h0.9
				c2.4,0,4.5-0.4,6.4-1.1c1.9-0.8,3.4-1.8,4.4-3.2c1-1.4,1.6-2.9,1.6-4.6C226.1,49.6,225.5,48.3,224.4,47.4z M222.6,50.6
				c0,2.6-0.7,4.7-2,6.3c-1.3,1.5-3.5,2.3-6.5,2.3h-0.9l2.5-9.5c0.2-0.7,0.4-1.3,0.6-1.7c0.2-0.4,0.5-0.6,0.8-0.8
				c0.4-0.2,0.8-0.2,1.5-0.2c1.4,0,2.4,0.3,3.1,0.9C222.2,48.4,222.6,49.4,222.6,50.6z"/>
			<path class="st1" d="M239.3,53.9c0-0.6-0.2-1-0.6-1.4c-0.4-0.4-0.9-0.6-1.5-0.6c-1.3,0-2.5,0.7-3.6,2c-0.8,1-1.7,2.7-2.6,4.9
				l0.6-2.2c0.3-1.2,0.5-2.1,0.5-2.7c0-1.3-0.7-2-2-2c-1.9,0-3.3,1.2-4,3.4l-0.9,2.5h0.9l0.5-1.3c0.4-1.2,0.8-2,1.2-2.5
				c0.4-0.5,0.8-0.7,1.2-0.7c0.4,0,0.6,0.2,0.6,0.6c0,0.4-0.1,0.8-0.2,1.2l-3.9,14l0,0.2h3.1l0.7-2.7c1.2-4.1,2.5-7.5,3.9-10
				c1.3-2.5,2.6-3.7,3.7-3.7c0,0,0.1,0,0.1,0c-0.4,0.2-0.7,0.4-0.9,0.7c-0.3,0.4-0.4,0.8-0.4,1.3c0,0.4,0.1,0.7,0.4,1
				c0.3,0.2,0.6,0.3,1,0.3c0.6,0,1.2-0.2,1.7-0.7C239,55.2,239.3,54.6,239.3,53.9z"/>
			<path class="st1" d="M249.5,52.4L249.5,52.4l-0.5,1.5c-0.1-0.5-0.3-1-0.6-1.3c-0.4-0.5-0.9-0.7-1.5-0.7c-1.6,0-3.1,0.8-4.6,2.3
				c-1.5,1.5-2.7,3.4-3.7,5.6s-1.4,4.2-1.4,5.9c0,1.2,0.3,2.2,0.8,2.9c0.5,0.7,1.3,1.1,2.4,1.1c1.2,0,2.4-0.6,3.5-1.7
				c0.9-0.9,1.8-2.3,2.6-4.1l-0.3,1c0,0.2-0.1,0.5-0.3,1.1c-0.2,0.6-0.2,1.1-0.2,1.6c0,0.5,0.1,0.9,0.3,1.2c0.2,0.3,0.4,0.5,0.8,0.7
				c0.3,0.2,0.7,0.2,1.1,0.2c0.7,0,1.5-0.3,2.2-0.8c0.7-0.5,1.3-1.4,1.7-2.6l0.9-2.5h-0.9l-0.4,1.3c-0.7,2.1-1.5,3.2-2.4,3.2
				c-0.4,0-0.6-0.2-0.6-0.7c0-0.2,0-0.4,0.1-0.7c0.1-0.2,0.1-0.4,0.1-0.5l4.1-14.4l0.1-0.2l-0.2,0.1
				C251.6,52.2,250.7,52.3,249.5,52.4z M241.3,68.5c-0.3,0-0.6-0.2-0.7-0.5c-0.2-0.4-0.3-1-0.3-1.9c0-1.8,0.4-3.8,1.1-5.9
				c0.7-2.1,1.6-3.9,2.6-5.3c1-1.4,2-2.1,2.9-2.1c0.5,0,0.9,0.2,1.2,0.7c0.3,0.5,0.5,1.2,0.5,2c0,0.3,0,0.5,0,0.7l-0.6,2.3
				c-0.5,1.7-1.2,3.4-2,4.9c-0.8,1.5-1.6,2.8-2.5,3.7C242.6,68.1,241.9,68.5,241.3,68.5z"/>
			<path class="st1" d="M266.4,52.7c-0.7-0.5-1.6-0.8-2.6-0.8c-1.9,0-3.7,0.7-5.2,2.1c-1.5,1.4-2.7,3.1-3.5,5.1
				c-0.8,2-1.2,3.9-1.2,5.7c0,1.6,0.4,2.8,1.2,3.6c0.8,0.8,1.9,1.3,3.2,1.3c1.3,0,2.6-0.4,3.8-1.3c1.2-0.9,2.1-1.9,2.8-3.1l0.1-0.1
				l-0.9-0.3l-0.1,0.1c-1.4,2.1-3.1,3.2-4.8,3.2c-0.7,0-1.2-0.2-1.6-0.7c-0.4-0.5-0.6-1.3-0.6-2.3c0-2.1,0.3-4.1,1-6
				c0.7-1.9,1.6-3.5,2.6-4.6c1-1.1,2.1-1.7,3.1-1.7c0.9,0,1.6,0.3,2,0.8c-0.6,0.1-1.2,0.4-1.6,0.9c-0.5,0.5-0.8,1-0.8,1.7
				c0,0.4,0.1,0.7,0.4,1c0.2,0.3,0.6,0.4,1.1,0.4c0.7,0,1.3-0.3,1.8-0.8c0.4-0.6,0.7-1.2,0.7-1.9C267.5,53.9,267.1,53.2,266.4,52.7z
				"/>
			<path class="st1" d="M274.9,65.2c-0.4,1.2-0.9,2.1-1.4,2.5c-0.4,0.4-0.9,0.7-1.4,0.7c-0.4,0-0.7-0.1-0.9-0.3
				c-0.2-0.2-0.3-0.5-0.3-0.9c0-0.2,0-0.4,0.1-0.7l3.7-13.2h4.4l0.1-0.9h-4.3l1.5-5.5l-0.2,0.1c-0.8,0.3-1.7,0.4-2.9,0.4l-0.1,0
				l-1.4,4.9h-2.9l-0.2,0.9h2.9l-3.4,11.8c-0.2,0.7-0.3,1.3-0.3,1.9c0,0.9,0.3,1.6,0.8,2.1c0.5,0.5,1.3,0.8,2.3,0.8
				c1.1,0,2-0.3,2.8-0.9c0.7-0.6,1.4-1.5,1.8-2.9l0.7-2.2h-0.9L274.9,65.2z"/>
			<path class="st1" d="M284.2,65.1c-0.4,1.2-0.9,2-1.3,2.5c-0.4,0.5-0.8,0.7-1.2,0.7c-0.5,0-0.7-0.2-0.7-0.7c0-0.3,0.1-0.7,0.3-1.2
				l3.5-9.9c0.4-1,0.5-1.8,0.5-2.5c0-1.4-0.8-2.2-2.3-2.2c-0.8,0-1.6,0.3-2.4,0.8c-0.7,0.5-1.3,1.4-1.8,2.7l-0.9,2.5h0.9l0.5-1.3
				c0.4-1.2,0.8-2,1.2-2.5c0.4-0.5,0.8-0.7,1.2-0.7c0.3,0,0.6,0.1,0.6,0.7c0,0.3-0.1,0.7-0.3,1.2l-3.5,9.9c-0.4,1.1-0.6,2-0.6,2.6
				c0,1.4,0.8,2.1,2.4,2.1c0.8,0,1.6-0.3,2.4-0.8c0.7-0.5,1.3-1.4,1.7-2.6l0.9-2.5h-0.9L284.2,65.1z"/>
			<path class="st1" d="M287,44.9c-0.3-0.3-0.8-0.5-1.3-0.5c-0.7,0-1.3,0.3-1.8,0.8v0c-0.5,0.5-0.8,1.1-0.8,1.8
				c0,0.5,0.2,0.9,0.5,1.3c0.3,0.3,0.7,0.5,1.3,0.5c0.7,0,1.3-0.3,1.8-0.8c0.5-0.5,0.8-1.1,0.8-1.8C287.5,45.7,287.4,45.3,287,44.9z
				"/>
			<path class="st1" d="M299.4,52.7c-0.7-0.5-1.6-0.8-2.6-0.8c-1.9,0-3.7,0.7-5.2,2.1c-1.5,1.4-2.7,3.1-3.5,5.1
				c-0.8,2-1.2,3.9-1.2,5.7c0,1.6,0.4,2.8,1.2,3.6c0.8,0.8,1.9,1.3,3.2,1.3c1.3,0,2.6-0.4,3.8-1.3c1.2-0.9,2.1-1.9,2.8-3.1l0.1-0.1
				l-0.9-0.3l-0.1,0.1c-1.4,2.1-3.1,3.2-4.8,3.2c-0.7,0-1.2-0.2-1.6-0.7c-0.4-0.5-0.6-1.3-0.6-2.3c0-2.1,0.3-4.1,1-6
				c0.7-1.9,1.6-3.5,2.6-4.6c1-1.1,2.1-1.7,3.1-1.7c0.9,0,1.6,0.3,2,0.8c-0.6,0.1-1.2,0.4-1.6,0.9c-0.5,0.5-0.8,1-0.8,1.7
				c0,0.4,0.1,0.7,0.4,1c0.2,0.3,0.6,0.4,1.1,0.4c0.7,0,1.3-0.3,1.8-0.8c0.4-0.6,0.7-1.2,0.7-1.9C300.5,53.9,300.1,53.2,299.4,52.7z
				"/>
			<path class="st1" d="M311.1,51.9c-2,0-3.8,0.7-5.4,2.2c-1.7,1.5-3,3.2-3.9,5.3c-1,2.1-1.5,4-1.5,5.6c0,1.5,0.4,2.7,1.2,3.5
				c0.8,0.8,1.9,1.2,3.2,1.2c1.3,0,2.6-0.4,3.8-1.3c1.2-0.9,2.1-1.9,2.8-3.1l0.1-0.1l-0.7-0.4l-0.1,0.1c-1.4,2.1-3.1,3.2-4.9,3.2
				c-1.4,0-2.1-1-2.1-3c0-1,0.1-2,0.3-3.1c2.5-0.8,4.8-1.9,6.7-3.2c2-1.3,3-2.9,3-4.7c0-0.7-0.2-1.3-0.7-1.7
				C312.4,52.1,311.8,51.9,311.1,51.9z M310.7,54.1c0,1-0.2,2-0.7,2.9c-0.4,0.9-1.1,1.6-1.8,2.3c-0.8,0.6-2.2,1.3-4.2,2
				c0.4-1.4,0.9-2.8,1.6-4c0.7-1.3,1.5-2.4,2.4-3.2c0.8-0.8,1.6-1.2,2.2-1.2c0.1,0,0.2,0,0.3,0.2C310.7,53.1,310.7,53.4,310.7,54.1z
				"/>
		</g>
		<g>
			<path class="st1" d="M232.2,19.8c1.5,0,3,0,4.5,0c0-0.2,0-0.3,0-0.5c-0.3,0-0.5-0.1-0.8-0.1c-0.5-0.1-0.7-0.3-0.7-0.8
				c0-1.6,0-3.2,0.1-4.8c0-0.6,0.2-1.2,0.7-1.7c0.8-0.8,1.7-0.9,2.8-0.7c0.6,0.1,1,0.5,1.2,1.1c0.1,0.5,0.2,0.9,0.2,1.4
				c0,1.4,0,2.8,0,4.2c0,0.2,0,0.4,0,0.5c0,0.4-0.3,0.7-0.7,0.7c-0.3,0.1-0.5,0.1-0.8,0.1c0,0.2,0,0.3,0,0.5c1.6,0,3.1,0,4.7,0
				c0-0.2,0-0.3,0-0.5c-0.1,0-0.1,0-0.2,0c-1.2-0.1-1.3-0.3-1.3-1.5c0-1.5,0-3,0-4.5c0-0.4,0-0.8-0.1-1.2c-0.1-1-0.7-1.7-1.6-1.9
				c-1.5-0.4-2.9-0.1-4.2,0.8c-0.2,0.2-0.4,0.4-0.7,0.6c0-0.6,0-1.1,0-1.6c-1,0.5-2.1,0.7-3.2,0.8c0,0.2,0,0.3,0,0.5
				c0.2,0,0.3,0,0.5,0c0.8,0,1,0.2,1,1c0,1.8,0,3.6,0,5.4c0,0.2,0,0.4,0,0.7c0,0.4-0.3,0.7-0.7,0.8c-0.2,0-0.5,0.1-0.7,0.1
				c-0.2,0-0.4-0.1-0.6-0.1c-0.5-0.1-0.6-0.3-0.7-0.8c0-0.3,0-0.6,0-1c0-2.3,0-4.7,0-7c0-0.1,0-0.2,0-0.4c-1,0.5-2.1,0.7-3.2,0.8
				c0,0.2,0,0.3,0,0.5c0.3,0,0.6,0,0.8,0c0.4,0,0.6,0.2,0.7,0.7c0,0.1,0,0.2,0,0.3c0,1.8,0,3.6,0,5.5c0,0.2,0,0.5,0,0.7
				c0,0.3-0.2,0.6-0.6,0.6c-0.3,0.1-0.6,0.1-0.9,0.1c0,0.2,0,0.3,0,0.5C229,19.8,230.6,19.8,232.2,19.8
				C232.2,19.8,232.2,19.8,232.2,19.8z"/>
			<path class="st1" d="M229.6,8.8c0.6,0,1.1-0.5,1.1-1.1c0-0.6-0.5-1.1-1.1-1.1c-0.6,0-1.1,0.5-1.1,1.1
				C228.5,8.3,229,8.8,229.6,8.8z"/>
		</g>
		<g>
			<path class="st1" d="M190.8,40.1c-2.8-0.3-2.7-0.2-2.7-3.1V20.2h1.9c3.5,0,5.2,1.6,5.2,5.1c0,3.4-1.8,5.7-5.7,5.7v0.6
				c4.8,0.3,8.8-2.1,8.8-6.6c0-3.7-2.5-5.8-7.7-5.8h-8.1V20c2.8,0.3,2.7,0.2,2.7,3.1v14c0,2.9,0.1,2.7-2.7,3.1v0.8h8.4V40.1z"/>
			<path class="st1" d="M207.4,40.1c-1.7-0.2-2.8-0.2-2.9-0.9c-0.1-0.7-0.1-1.2-0.1-2.2v-4.8c0-2.2,0.2-4.4,1.5-4.4
				c0.5,0,0.8,0,1.2,0.1l1.1,0.6c0.2,0.1,0.3,0.2,0.5,0l0.9-0.6c0.2-0.1,0.3-0.2,0.2-0.4l-0.9-1.6c-0.5-0.9-0.9-0.9-1.2-0.9
				c-0.5,0-1,0.4-1.7,1.2l-1.6,1.7v-2.8l-0.1-0.1c-1.4,0.9-3.5,1.2-5.2,1.3v0.8c1.5,0,2.5-0.1,2.5,1.3v8.6c0,2.8,0.2,2.7-2.5,3.1
				v0.8h8.3V40.1z"/>
			<path class="st1" d="M217.8,40.1c-2.6-0.4-2.5-0.3-2.5-3.1v-12l-0.1-0.1c-1.4,0.9-3.5,1.2-5.2,1.3v0.8c1.5,0,2.5-0.1,2.5,1.3v8.6
				c0,2.8,0.2,2.7-2.5,3.1v0.8h7.8V40.1z"/>
			<path class="st1" d="M213.6,23c1,0,1.8-0.9,1.8-1.8s-0.8-1.8-1.8-1.8c-1,0-1.8,0.8-1.8,1.8C211.8,22.2,212.6,23,213.6,23z"/>
			<path class="st1" d="M226.5,40.1c-2.6-0.4-2.5-0.3-2.5-3.1v-3.8c0-3.2,0.6-6.6,4.6-6.6c3.3,0,3.4,2.7,3.4,4.7v5.7
				c0,2.8,0.2,2.7-2.5,3.1v0.8h7.8v-0.8c-2.6-0.4-2.5-0.3-2.5-3.1v-6.5c0-3.2-0.7-5.5-4.5-5.5c-2.7,0-4.9,1.2-6.3,2.7v-2.7L224,25
				c-1.4,0.9-3.5,1.2-5.2,1.3v0.8c1.5,0,2.5-0.1,2.5,1.3v8.6c0,2.8,0.2,2.7-2.5,3.1v0.8h7.8V40.1z"/>
			<path class="st1" d="M237.8,33.1c0,2.3,1.1,4.7,2.1,5.8c2.5,2.8,6.1,2.4,6.8,2.4l4.1-2l-0.5-1c-0.8,0.4-1.8,1.2-3.5,1.2
				c-4.5,0-6-4.2-6-7.5c0-4.5,2.8-6,4.6-6c1.2,0,2,0.5,2.5,1l1.6,1.8c0.1,0.1,0.3,0.1,0.5,0l1.1-0.7c0.1-0.1,0.1-0.2,0-0.3l-1.1-2.1
				c-1-0.6-2.7-0.8-3.8-0.8C241.5,25,237.8,28.2,237.8,33.1z"/>
			<path class="st1" d="M259.4,40.1c-2.6-0.4-2.5-0.3-2.5-3.1v-12l-0.1-0.1c-1.4,0.9-3.5,1.2-5.2,1.3v0.8c1.5,0,2.5-0.1,2.5,1.3v8.6
				c0,2.8,0.2,2.7-2.5,3.1v0.8h7.8V40.1z"/>
			<path class="st1" d="M255.2,23c1,0,1.8-0.9,1.8-1.8s-0.8-1.8-1.8-1.8c-1,0-1.8,0.8-1.8,1.8C253.4,22.2,254.2,23,255.2,23z"/>
			<path class="st1" d="M261.8,28.4v16.4c0,2.8,0.2,2.7-2.5,3.1v0.8h8.6v-0.8c-2-0.2-3.1-0.2-3.2-0.9c-0.1-0.7-0.1-1.2-0.1-2.2v-4.2
				c1.4,0.6,2.4,0.7,3.7,0.7c5.4,0,8-4.8,8-8.5c0-5.9-3.1-7.8-6.5-7.8c-2,0-3.9,1-5.2,2.5h-0.1v-2.5l-0.1-0.1
				c-1.4,0.9-3.5,1.2-5.2,1.3v0.8C260.8,27.1,261.8,27,261.8,28.4z M264.6,33.4c0-1.6,0.1-3.4,0.5-4.5c0.5-1.4,1.8-2.3,3.4-2.3
				c2.4,0,4.7,1.6,4.7,6.4c0,2.8-0.6,7.3-5.1,7.3c-1.3,0-2.5-0.5-3.6-1.4V33.4z"/>
			<path class="st1" d="M285.3,40.1c-2.6-0.4-2.5-0.3-2.5-3.1V18.2l-0.1-0.1c-1.4,0.5-3.4,0.9-5.2,0.9v0.8h1.3
				c0.8,0,1.2,0.5,1.2,1.4v15.9c0,2.8,0.2,2.7-2.5,3.1v0.8h7.8V40.1z"/>
			<path class="st1" d="M294.4,41.3h1l4.1-1.9l-0.5-1c-0.7,0.4-1.8,1.1-3.5,1.1c-4.4,0-6.1-3.6-6.1-7.2h10.1v-0.9
				c0-3.9-2.3-6.5-5.8-6.5c-5.3,0-7.2,4.4-7.2,8.1c0,2.3,1.1,4.8,2.1,5.8C291.1,41.7,293.7,41.3,294.4,41.3z M293.5,26.1
				c1.7,0,3.3,1.4,3.3,3.4c0,1.4-0.9,1.8-1.6,1.8h-5.8C289.4,27.4,291.4,26.1,293.5,26.1z"/>
		</g>
	</g>
	<g>
		<g>
			<path class="st1" d="M42.5,36c1.5,0.5,2.3,0.6,4,0.6c4.8,0,7.9-2.6,7.9-7c0-3.5-1.9-8.1-7.9-8.1h-4V36L42.5,36z M42.5,46.5
				c0,4,1,5.2,3.7,5.2v1H34.5v-1c2.3,0,3.7-0.7,3.7-5V26.3c0-4-1-5.2-3.7-5.2v-1h11.8c8.9,0,12.6,4.8,12.6,9.2
				c0,5.4-4.1,8.4-11.4,8.4c-1.4,0-2.6-0.1-5-0.3V46.5L42.5,46.5z"/>
			<path class="st1" d="M70.6,39.4c0.2-4.4-2.8-6.2-5.4-6.2c-3.3,0-5.3,2.5-5.5,6.2H70.6L70.6,39.4z M59.7,40.4
				c-0.1,9,5.3,11.3,8,11.3c2.8,0,4.2-1,7.1-4.2v1.5c-2.4,3.1-4.8,4.3-8.3,4.3c-6.3,0-10.8-4.4-10.8-10.4c0-6.1,4.4-10.8,10.1-10.8
				c4.6,0,8.9,3.7,8.7,8.4H59.7L59.7,40.4z"/>
			<path class="st1" d="M96.1,48.2c0,2.6,0.6,3.4,3.4,3.4v1H88.8v-1c2.7,0,3.5-0.6,3.5-2.5V38.7c0-3.2-2.3-4.6-4.5-4.6
				c-2,0-3.7,1.2-5.7,3.9v9.8c0,3.1,0.4,3.8,3.4,3.8v1H74.9v-1c2.7,0,3.3-0.2,3.3-3.8V36.5c0-2.4-0.6-2.9-3.3-2.9v-1l6.2-0.6h1v4
				c2.4-2.7,4.7-4,7.2-4c3.3,0,6.8,2.4,6.8,7.2V48.2L96.1,48.2z"/>
			<path class="st1" d="M120.6,48.2c0,2.6,0.6,3.4,3.4,3.4v1h-10.7v-1c2.7,0,3.5-0.6,3.5-2.5V38.7c0-3.2-2.3-4.6-4.5-4.6
				c-2,0-3.7,1.2-5.7,3.9v9.8c0,3.1,0.4,3.8,3.4,3.8v1H99.4v-1c2.7,0,3.3-0.2,3.3-3.8V36.5c0-2.4-0.6-2.9-3.3-2.9v-1l6.2-0.6h1v4
				c2.4-2.7,4.7-4,7.2-4c3.3,0,6.8,2.4,6.8,7.2V48.2L120.6,48.2z"/>
		</g>
		<g>
			<path class="st2" d="M29.3,19.6H0c0,0,0,14.5,0,14.6c0,6.4,3.5,11,6.5,13.7c3.3,3,6.9,4.8,8.1,5l0.1,0l0.1,0c1.2-0.3,4.8-2,8.1-5
				c3-2.7,6.5-7.4,6.5-13.7C29.3,34.1,29.3,19.6,29.3,19.6L29.3,19.6z"/>
			<path class="st3" d="M27.5,25.8L27.5,25.8c0,0,0.1,0.1,0.1,0.1c0,0,0.1,0.1,0,0.2c0,0.1,0,0.1,0,0.2c0,0-0.1,0.1-0.1,0.1
				c-0.1,0.1-0.1,0.1-0.1,0.2V27l-3.1,0l-3.1,0v-0.5c0-0.1-0.1-0.1-0.1-0.2c0,0-0.1-0.1-0.1-0.1c0,0-0.1-0.1,0-0.2
				c0-0.1,0-0.1,0-0.2c0,0,0.1-0.1,0.1-0.1c0.1-0.1,0.1-0.1,0.1-0.2v-1.7c0-0.1-0.1-0.1-0.1-0.2c0,0-0.1-0.1-0.1-0.1
				c0,0-0.1-0.1,0-0.2c0-0.1,0-0.1,0-0.2c0,0,0.1-0.1,0.1-0.1c0.1-0.1,0.1-0.1,0.1-0.2v-0.5h0.1c0.4,0,0.7,0,0.9-0.1
				c0.1,0,0.2-0.1,0.3-0.1c0.2-0.1,0.4-0.3,0.7-0.3c0.3,0,0.5,0.1,0.7,0.2c0.1,0.1,0.3,0.1,0.4,0.1h0c0.1,0,0.2-0.1,0.4-0.1
				c0.2-0.1,0.4-0.2,0.7-0.2c0.3,0,0.5,0.1,0.7,0.3c0.1,0.1,0.2,0.1,0.3,0.1c0.2,0.1,0.5,0.1,0.9,0.1h0.1v0.5c0,0.1,0.1,0.1,0.1,0.2
				c0,0,0.1,0.1,0.1,0.1c0,0,0.1,0.1,0,0.2c0,0.1,0,0.1,0,0.2c0,0-0.1,0.1-0.1,0.1c-0.1,0.1-0.1,0.1-0.1,0.2v1.7
				C27.4,25.7,27.5,25.7,27.5,25.8L27.5,25.8z M20,26.6c-0.5,0.8-1.4,0.9-1.4,1c-0.2,0-0.4,0-0.6,0h0c-1,0-1.8-0.4-2.7-0.9
				c-0.1-0.1-0.2-0.1-0.3-0.2c-0.6-0.3-1.4-0.8-2.1-0.8c-0.2,0-0.4,0-0.6,0.1l0,0l0,0c0,0.1,0,0.2-0.1,0.2c-0.1,0.3-0.5,0.6-0.6,0.7
				c-0.4,0.3-0.9,0.6-1.5,0.6c-0.1,0-0.2,0-0.2,0c-0.1,0-0.2-0.1-0.3-0.2c0,0-0.1-0.1-0.1-0.1c0,0,0-0.1,0-0.1l0,0l0,0
				c-0.2-0.1-0.4-0.2-0.4-0.4c0-0.1,0.1-0.3,0.2-0.4c0.2-0.2,0.3-0.3,0.1-0.6c0,0,0,0-0.1-0.1c0,0-0.1,0-0.1-0.1
				c-0.2-0.2-0.1-0.6,0-0.9l0,0c0.1-0.3,0.2-0.6,0.3-0.9c0.2-0.4,0.5-0.9,0.8-1.2c0,0,0,0,0,0c0,0,0,0,0,0c0,0,0,0.1,0.1,0.2
				l0.1,0.1l0-0.1c0.1-0.3,0.3-0.5,0.5-0.6c0.2-0.1,0.5,0,0.6,0.1l0,0l0-0.1c0.1-0.1,0.2-0.3,0.4-0.3c0.2,0,0.5,0.2,0.6,0.3l0,0l0,0
				c0.1-0.1,0.4-0.3,0.7-0.3c0.3,0,0.4,0.3,0.4,0.4l0,0.1l0.1,0c0.1-0.1,0.4-0.1,0.6,0c0.2,0.1,0.2,0.3,0.2,0.4l0,0.1l0.1,0
				c0.2,0,0.5-0.1,0.7,0.1c0.2,0.2,0.2,0.4,0.1,0.5l0,0.1l0.1,0c0.2,0,0.4,0,0.5,0.2c0.1,0.1,0,0.3,0,0.4l0,0.1l0.1,0
				c0.1,0,0.3,0.1,0.3,0.2c0,0.1,0,0.3,0,0.4l0,0l0,0c0.1,0,0.2,0.1,0.3,0.3c0.1,0.2,0.1,0.3,0,0.6l0,0l0,0c0.2,0.2,0.4,0.3,0.6,0.5
				c0.4,0.3,1,0.5,1.5,0.1c0.2-0.1,0.2-0.4,0.2-0.6c0-0.2-0.2-0.3-0.4-0.4c-0.3-0.1-0.6,0.2-0.8,0.6c0,0,0,0,0,0c0,0,0,0,0,0
				c-0.2-0.5-0.2-0.8,0-1.1c0.1-0.3,0.4-0.4,0.8-0.5l0,0l0,0c0-0.6,0.1-1,0.4-1.2c0.2-0.1,0.5-0.3,1-0.2c0,0,0,0,0,0c0,0,0,0,0,0
				c-0.4,0.9-0.3,1.2-0.1,1.9c0,0.1,0,0.1,0.1,0.2v0C20.3,25.6,20.3,26.2,20,26.6L20,26.6z M8.2,25.8L8.2,25.8c0,0,0.1,0.1,0.1,0.1
				c0,0,0.1,0.1,0,0.2c0,0.1,0,0.1,0,0.2c0,0-0.1,0.1-0.1,0.1c-0.1,0.1-0.1,0.1-0.1,0.2V27L5,27l-3.1,0v-0.5c0-0.1-0.1-0.1-0.1-0.2
				c0,0-0.1-0.1-0.1-0.1c0,0-0.1-0.1,0-0.2c0-0.1,0-0.1,0-0.2c0,0,0.1-0.1,0.1-0.1c0.1-0.1,0.1-0.1,0.1-0.2v-1.7
				c0-0.1-0.1-0.1-0.1-0.2c0,0-0.1-0.1-0.1-0.1c0,0-0.1-0.1,0-0.2c0-0.1,0-0.1,0-0.2c0,0,0.1-0.1,0.1-0.1c0.1-0.1,0.1-0.1,0.1-0.2
				v-0.5H2c0.4,0,0.7,0,0.9-0.1c0.1,0,0.2-0.1,0.3-0.1c0.2-0.1,0.4-0.3,0.7-0.3c0.3,0,0.5,0.1,0.7,0.2c0.1,0.1,0.3,0.1,0.4,0.1h0
				c0.1,0,0.2-0.1,0.4-0.1c0.2-0.1,0.4-0.2,0.7-0.2c0.3,0,0.5,0.1,0.7,0.3c0.1,0.1,0.2,0.1,0.3,0.1c0.2,0.1,0.5,0.1,0.9,0.1h0.1v0.5
				c0,0.1,0.1,0.1,0.1,0.2c0,0,0.1,0.1,0.1,0.1c0,0,0.1,0.1,0,0.2c0,0.1,0,0.1,0,0.2c0,0-0.1,0.1-0.1,0.1c-0.1,0.1-0.1,0.1-0.1,0.2
				v1.7C8.1,25.7,8.2,25.7,8.2,25.8L8.2,25.8z M0.7,20.4c0,0,0,8.5,0,8.5l27.9,0c0-4,0-8.5,0-8.5H0.7L0.7,20.4z"/>
			<path class="st4" d="M10.3,25.4c0.1,0,0.2,0,0.3,0.1c0,0,0.1,0.1,0.1,0.1c0.1,0.1,0.1,0.2,0,0.2c-0.1,0.1-0.1,0.1-0.2,0.1
				c-0.1,0.1-0.3,0.2-0.4,0.1c-0.1-0.1,0.1-0.1,0-0.4C10,25.5,10.2,25.4,10.3,25.4L10.3,25.4z"/>
			<path class="st4" d="M10.4,22.6c-0.3,0.3-0.5,0.7-0.7,1.1c-0.2,0.3-0.3,0.6-0.3,0.9l0,0c-0.1,0.2-0.2,0.6,0,0.8c0,0,0,0,0.1,0.1
				c0,0,0.1,0,0.1,0.1c0.3,0.3,0.1,0.5-0.1,0.7c-0.1,0.1-0.2,0.2-0.2,0.3c0,0.2,0.3,0.3,0.3,0.3c0,0,0.1,0,0.1,0.1
				c0,0.1,0,0.1,0,0.2c0,0,0,0.1,0.1,0.1c0.1,0.1,0.1,0.1,0.2,0.1c0.1,0,0.1,0,0.2,0c0.6,0,1-0.3,1.4-0.6c0.2-0.2,0.5-0.4,0.6-0.7
				c0-0.1,0-0.1,0-0.2L11.8,26c0,0,0,0,0,0c0,0-0.1,0-0.1-0.1c0-0.1,0.1-0.1,0.2-0.2c0,0,0.1-0.1,0.1-0.1c0.2-0.2,0.4-0.3,0.5-0.3
				c-0.1-0.1-0.2-0.3-0.3-0.4c-0.1-0.1-0.1-0.2-0.2-0.2c-0.2-0.2-0.5-0.3-0.8-0.2c-0.1,0.1-0.2,0.2-0.3,0.3
				c-0.1,0.1-0.2,0.2-0.3,0.2c0,0-0.1,0-0.1,0c0,0,0-0.1,0-0.1c0,0,0,0,0,0c0.1-0.1,0.4-0.4,0.4-0.6C11,23.7,10.5,22.9,10.4,22.6
				L10.4,22.6z M12.9,25.7c0.7,0,1.5,0.4,2.1,0.8c0.1,0.1,0.2,0.1,0.3,0.2c1.1,0.5,2.1,1,3.2,0.8c0,0,0.9-0.2,1.4-0.9
				c0.3-0.4,0.3-1,0.2-1.6c0-0.1,0-0.1-0.1-0.2c-0.2-0.7-0.3-1.1,0-1.9c-0.4,0-0.6,0.1-0.7,0.2c-0.3,0.2-0.4,0.6-0.3,1.2
				c0,0,0,0.1-0.1,0.1c-0.3,0-0.6,0.2-0.8,0.4c-0.1,0.2-0.1,0.5,0,0.9c0.2-0.2,0.5-0.5,0.8-0.5c0.2,0.1,0.4,0.2,0.5,0.5
				c0.1,0.3,0,0.6-0.2,0.7c-0.5,0.4-1.2,0.2-1.6-0.1c-0.5-0.4-1-0.9-1.6-1.5c-0.1-0.1-0.2-0.2-0.3-0.3c-0.3-0.4-0.7-0.8-1.1-1.1
				c-0.7-0.5-1.5-0.6-2-0.6c-0.4,0-1.1,0.1-1.6,0.4c0.2,0.3,0.3,0.7,0.3,1c0,0,0,0.1,0,0.2c0.4-0.2,0.8-0.1,1,0.2
				c0.1,0.1,0.1,0.1,0.2,0.2c0.1,0.1,0.2,0.3,0.3,0.4c0,0,0,0,0,0.1c0,0,0,0.1,0,0.1c0,0-0.2,0.2-0.6,0.4c0,0-0.1,0.1-0.1,0.1
				c0,0,0,0,0,0l0.3,0C12.4,25.7,12.7,25.7,12.9,25.7L12.9,25.7z M18,27.7c-1,0-1.9-0.4-2.8-0.9c-0.1-0.1-0.2-0.1-0.3-0.2
				c-0.7-0.4-1.8-1-2.6-0.6c0,0.1,0,0.2-0.1,0.3c-0.1,0.3-0.5,0.6-0.7,0.7c-0.4,0.3-0.9,0.6-1.5,0.6c-0.1,0-0.2,0-0.3,0
				c-0.1,0-0.2-0.1-0.3-0.2c0,0-0.1-0.1-0.1-0.2c0-0.1,0-0.1,0-0.1C9.2,27,9,26.8,9,26.6c0-0.2,0.1-0.3,0.2-0.4
				c0.2-0.2,0.2-0.3,0.1-0.5c0,0,0,0-0.1-0.1c0,0-0.1,0-0.1-0.1c-0.2-0.2-0.1-0.7,0-0.9l0,0c0.1-0.3,0.2-0.6,0.4-0.9
				c0.2-0.4,0.5-0.9,0.9-1.2c0,0,0,0,0.1,0c0,0,0,0,0.1,0c0,0,0.2,0.2,0.3,0.6c0.7-0.4,1.6-0.4,1.7-0.4c0.6,0,1.4,0.1,2.1,0.6
				c0.4,0.3,0.8,0.8,1.2,1.2c0.1,0.1,0.2,0.2,0.3,0.3c0.5,0.6,1.1,1.1,1.6,1.5c0.4,0.3,1,0.4,1.4,0.1c0.1-0.1,0.2-0.3,0.2-0.6
				c0-0.2-0.2-0.3-0.3-0.3c-0.3-0.1-0.5,0.2-0.7,0.5c0,0,0,0-0.1,0c0,0-0.1,0-0.1-0.1c-0.2-0.5-0.2-0.9,0-1.2
				c0.2-0.3,0.5-0.5,0.8-0.5c0-0.6,0.1-1,0.4-1.2c0.2-0.2,0.5-0.3,1-0.3c0,0,0.1,0,0.1,0c0,0,0,0.1,0,0.1c-0.4,0.9-0.3,1.2-0.1,1.9
				c0,0.1,0,0.1,0.1,0.2c0.2,0.7,0.1,1.3-0.2,1.8c-0.5,0.8-1.4,1-1.5,1C18.4,27.7,18.2,27.7,18,27.7L18,27.7z"/>
			<path class="st4" d="M9.8,27.1c-0.1,0-0.2,0-0.3,0c0,0-0.1,0-0.1-0.1c0,0,0-0.1,0.1-0.1c0.4,0,1,0,1.5-0.5c0,0,0.1,0,0.1,0
				c0,0,0,0.1,0,0.1C10.8,26.9,10.3,27.1,9.8,27.1L9.8,27.1z"/>
			<path class="st4" d="M16.5,26.9C16.5,26.9,16.5,26.9,16.5,26.9C16.4,26.9,16.4,26.9,16.5,26.9c0-0.4-0.2-0.5-0.4-0.5
				c0,0-0.1,0-0.1,0c-0.1-0.1-0.1-0.2-0.1-0.3c0-0.1,0-0.3-0.1-0.4c-0.2-0.2-0.5-0.1-0.5-0.1c0,0-0.1,0-0.1,0c0,0,0,0,0-0.1
				c0,0,0-0.3-0.1-0.5c-0.2-0.1-0.5-0.1-0.6-0.1c0,0-0.1,0-0.1,0c0,0,0,0,0-0.1c0-0.2-0.1-0.4-0.2-0.5c-0.1-0.1-0.3-0.1-0.4,0
				c-0.3,0.2-0.5,0.2-0.8-0.1c-0.1-0.1-0.2-0.1-0.3-0.1c-0.1,0-0.3,0.2-0.4,0.3c0,0-0.1,0.1-0.1,0c0,0-0.1-0.1,0-0.1
				c0.1-0.2,0.3-0.4,0.5-0.4c0.2,0,0.3,0,0.5,0.1c0.3,0.2,0.4,0.2,0.7,0c0.2-0.1,0.4-0.1,0.6,0c0.2,0.1,0.3,0.3,0.3,0.5
				c0.2,0,0.4,0,0.6,0.1c0.2,0.2,0.2,0.4,0.2,0.5c0.1,0,0.4,0,0.5,0.1c0.1,0.1,0.1,0.3,0.1,0.5c0,0,0,0.1,0,0.1c0,0,0,0,0.1,0
				C16.3,26.3,16.6,26.4,16.5,26.9C16.6,26.9,16.5,26.9,16.5,26.9L16.5,26.9z"/>
			<path class="st4" d="M8.3,26c0,0,0,0.1,0,0.1c0,0-0.1,0.1-0.1,0.1C8.1,26.3,8,26.4,8,26.5v0.4H5h0h-3v-0.4c0-0.1-0.1-0.2-0.2-0.3
				c0,0-0.1-0.1-0.1-0.1c0,0,0-0.1,0-0.1v0v0c0,0,0-0.1,0-0.1c0,0,0.1-0.1,0.1-0.1c0.1-0.1,0.2-0.1,0.2-0.3v-1.7
				c0-0.1-0.1-0.2-0.2-0.3c0,0-0.1-0.1-0.1-0.1c0,0,0-0.1,0-0.1v0v0c0,0,0-0.1,0-0.1c0,0,0.1-0.1,0.1-0.1c0.1-0.1,0.2-0.1,0.2-0.3
				v-0.4c0,0,0,0,0,0c0.2,0,0.3,0,0.4,0v3.9h2.2c0,0.2,0.2,0.3,0.3,0.3c0.2,0,0.3-0.1,0.3-0.3h2.2l0,0v-3.9c0.1,0,0.3,0,0.4,0
				c0,0,0,0,0,0v0.4c0,0.1,0.1,0.2,0.2,0.3c0,0,0.1,0.1,0.1,0.1c0,0,0,0.1,0,0.1l0,0l0,0c0,0,0,0.1,0,0.1c0,0-0.1,0.1-0.1,0.1
				C8.1,23.6,8,23.7,8,23.9v1.7c0,0.1,0.1,0.2,0.2,0.3c0,0,0.1,0.1,0.1,0.1C8.3,26,8.3,26,8.3,26L8.3,26L8.3,26L8.3,26z M3,22.4
				c0.1,0,0.2-0.1,0.3-0.2C3.4,22.1,3.6,22,3.9,22c0.2,0,0.5,0.1,0.7,0.2c0.1,0.1,0.3,0.1,0.4,0.1v3.4c0,0,0,0,0,0
				c-0.2,0-0.4,0.1-0.7,0.2C4.1,25.9,4.1,26,4,26c-0.3,0.1-0.5,0.1-0.8,0.1c-0.2,0-0.3,0-0.5,0v-3.6C2.8,22.5,2.9,22.5,3,22.4
				L3,22.4z M5.5,22.2C5.7,22.1,5.9,22,6.1,22c0.3,0,0.5,0.1,0.6,0.2c0.1,0.1,0.2,0.1,0.3,0.2c0.1,0,0.2,0.1,0.3,0.1v3.6
				c-0.1,0-0.3,0-0.5,0c-0.3,0-0.5,0-0.8-0.1c-0.1,0-0.2-0.1-0.3-0.1c-0.3-0.1-0.5-0.2-0.7-0.2c0,0,0,0,0,0v-3.4
				C5.2,22.3,5.3,22.3,5.5,22.2L5.5,22.2z M8.3,25.7c-0.1-0.1-0.1-0.1-0.1-0.1v-1.7c0-0.1,0-0.1,0.1-0.1c0,0,0.1-0.1,0.1-0.1
				c0-0.1,0.1-0.1,0.1-0.2c0-0.1,0-0.1-0.1-0.2c0-0.1-0.1-0.1-0.1-0.1C8.2,23,8.1,23,8.1,22.9v-0.6H8l0,0c-0.3,0-0.7,0-0.9-0.1
				c-0.1,0-0.2-0.1-0.3-0.1c-0.2-0.1-0.4-0.3-0.8-0.3c-0.3,0-0.5,0.1-0.7,0.2c-0.1,0.1-0.3,0.1-0.4,0.1h0l0,0h0l0,0h0
				c-0.1,0-0.2-0.1-0.4-0.1c-0.2-0.1-0.5-0.2-0.7-0.2c-0.3,0-0.6,0.1-0.8,0.3c-0.1,0.1-0.2,0.1-0.3,0.1c-0.2,0.1-0.6,0.1-0.9,0.1
				l0,0H1.9v0.6c0,0.1,0,0.1-0.1,0.1c0,0-0.1,0.1-0.1,0.1c0,0.1-0.1,0.1-0.1,0.2c0,0.1,0,0.1,0.1,0.2c0,0.1,0.1,0.1,0.1,0.1
				c0.1,0.1,0.1,0.1,0.1,0.1v1.7c0,0.1,0,0.1-0.1,0.1c0,0-0.1,0.1-0.1,0.1c0,0.1-0.1,0.1-0.1,0.2c0,0.1,0,0.1,0.1,0.2
				c0,0.1,0.1,0.1,0.1,0.1c0.1,0.1,0.1,0.1,0.1,0.1v0.6l0,0h0v0l3.1,0l3.1,0v0h0l0,0v-0.6c0-0.1,0-0.1,0.1-0.1c0,0,0.1-0.1,0.1-0.1
				c0-0.1,0.1-0.1,0.1-0.2c0-0.1,0-0.1-0.1-0.2C8.3,25.8,8.3,25.7,8.3,25.7L8.3,25.7z"/>
			<path class="st4" d="M27.6,26c0,0,0,0.1,0,0.1c0,0-0.1,0.1-0.1,0.1c-0.1,0.1-0.2,0.1-0.2,0.3v0.4h-3h0h-3v-0.4
				c0-0.1-0.1-0.2-0.2-0.3c0,0-0.1-0.1-0.1-0.1c0,0,0-0.1,0-0.1l0,0l0,0c0,0,0-0.1,0-0.1c0,0,0.1-0.1,0.1-0.1
				c0.1-0.1,0.2-0.1,0.2-0.3v-1.7c0-0.1-0.1-0.2-0.2-0.3c0,0-0.1-0.1-0.1-0.1c0,0,0-0.1,0-0.1l0,0l0,0c0,0,0-0.1,0-0.1
				c0,0,0.1-0.1,0.1-0.1c0.1-0.1,0.2-0.1,0.2-0.3v-0.4c0,0,0,0,0,0c0.2,0,0.3,0,0.4,0v3.9H24c0,0.2,0.2,0.3,0.3,0.3
				c0.2,0,0.3-0.1,0.3-0.3h2.2l0,0v-3.9c0.1,0,0.3,0,0.4,0c0,0,0,0,0,0v0.4c0,0.1,0.1,0.2,0.2,0.3c0,0,0.1,0.1,0.1,0.1
				c0,0,0,0.1,0,0.1v0v0c0,0,0,0.1,0,0.1c0,0-0.1,0.1-0.1,0.1c-0.1,0.1-0.2,0.1-0.2,0.3v1.7c0,0.1,0.1,0.2,0.2,0.3
				c0,0,0.1,0.1,0.1,0.1C27.6,26,27.6,26,27.6,26L27.6,26L27.6,26L27.6,26z M22.3,22.4c0.1,0,0.2-0.1,0.3-0.2
				c0.2-0.1,0.4-0.2,0.6-0.2c0.2,0,0.5,0.1,0.7,0.2c0.1,0.1,0.3,0.1,0.4,0.1v3.4c0,0,0,0,0,0c-0.2,0-0.4,0.1-0.7,0.2
				c-0.1,0-0.2,0.1-0.3,0.1c-0.3,0.1-0.5,0.1-0.8,0.1c-0.2,0-0.3,0-0.5,0v-3.6C22.1,22.5,22.2,22.5,22.3,22.4L22.3,22.4z M24.8,22.2
				c0.2-0.1,0.4-0.2,0.7-0.2c0.3,0,0.5,0.1,0.6,0.2c0.1,0.1,0.2,0.1,0.3,0.2c0.1,0,0.2,0.1,0.3,0.1v3.6c-0.1,0-0.3,0-0.5,0
				c-0.3,0-0.5,0-0.8-0.1c-0.1,0-0.2-0.1-0.3-0.1c-0.3-0.1-0.5-0.2-0.7-0.2c0,0,0,0,0,0v-3.4C24.5,22.3,24.7,22.3,24.8,22.2
				L24.8,22.2z M27.6,25.7c-0.1-0.1-0.1-0.1-0.1-0.1v-1.7c0-0.1,0-0.1,0.1-0.1c0,0,0.1-0.1,0.1-0.1c0-0.1,0.1-0.1,0.1-0.2
				c0-0.1,0-0.1-0.1-0.2c0-0.1-0.1-0.1-0.1-0.1c-0.1-0.1-0.1-0.1-0.1-0.1v-0.6h-0.1l0,0c-0.3,0-0.7,0-0.9-0.1
				c-0.1,0-0.2-0.1-0.3-0.1c-0.2-0.1-0.4-0.3-0.8-0.3c-0.3,0-0.5,0.1-0.7,0.2c-0.1,0.1-0.3,0.1-0.4,0.1h0l0,0h0l0,0h0
				c-0.1,0-0.2-0.1-0.4-0.1c-0.2-0.1-0.5-0.2-0.7-0.2c-0.3,0-0.6,0.1-0.8,0.3c-0.1,0.1-0.2,0.1-0.3,0.1c-0.2,0.1-0.6,0.1-0.9,0.1
				l0,0h-0.1v0.6c0,0.1,0,0.1-0.1,0.1c0,0-0.1,0.1-0.1,0.1c0,0.1-0.1,0.1-0.1,0.2c0,0.1,0,0.1,0.1,0.2c0,0.1,0.1,0.1,0.1,0.1
				c0.1,0.1,0.1,0.1,0.1,0.1v1.7c0,0.1,0,0.1-0.1,0.1c0,0-0.1,0.1-0.1,0.1c0,0.1-0.1,0.1-0.1,0.2c0,0.1,0,0.1,0.1,0.2
				c0,0.1,0.1,0.1,0.1,0.1c0.1,0.1,0.1,0.1,0.1,0.1v0.6l0,0h0v0l3.1,0l3.1,0v0h0l0,0v-0.6c0-0.1,0-0.1,0.1-0.1c0,0,0.1-0.1,0.1-0.1
				c0-0.1,0.1-0.1,0.1-0.2c0-0.1,0-0.1-0.1-0.2C27.7,25.8,27.6,25.7,27.6,25.7L27.6,25.7z"/>
			<path class="st4" d="M26.8,41.2L14.7,29.4L2.5,41.2c-0.9-2-1.6-4.3-1.6-6.9c0-0.1,0-2.4,0-5.2h27.4c0,2.8,0,5.1,0,5.2
				C28.4,36.9,27.8,39.2,26.8,41.2L26.8,41.2z M22.9,42.4c-0.9,0.9-2.5,0.9-3.4,0c-0.9-0.9-0.9-2.5,0-3.4c0.9-0.9,2.5-0.9,3.4,0
				C23.9,39.9,23.9,41.4,22.9,42.4L22.9,42.4z M12.3,34.7c0-1.3,1.1-2.4,2.4-2.4c1.3,0,2.4,1.1,2.4,2.4c0,1.3-1.1,2.4-2.4,2.4
				C13.3,37.1,12.3,36,12.3,34.7L12.3,34.7z M22.2,47.3c-3.3,3-6.6,4.6-7.6,4.8c-0.9-0.2-4.3-1.8-7.6-4.8C7,47.2,7,47.1,6.9,47.1
				l7.8-8.3l7.8,8.3C22.4,47.1,22.3,47.2,22.2,47.3L22.2,47.3z M6.4,42.4c-0.9-0.9-0.9-2.5,0-3.4C7.3,38,8.9,38,9.8,39
				c0.9,0.9,0.9,2.5,0,3.4C8.9,43.3,7.3,43.3,6.4,42.4L6.4,42.4z M28.4,20.6c0,0.9,0,4.7,0,8.1H0.9c0-3.4,0-7.2,0-8.1H28.4
				L28.4,20.6z M28.8,20.2H0.6c0,0,0,13.9,0,14.1c0,6.2,3.4,10.6,6.3,13.3c3.1,2.9,6.7,4.6,7.8,4.9l0,0l0,0c1.1-0.2,4.6-2,7.8-4.9
				c2.9-2.7,6.3-7.2,6.3-13.3C28.8,34.1,28.8,20.2,28.8,20.2L28.8,20.2z"/>
			<path class="st4" d="M16.9,25.8C16.9,25.8,16.9,25.8,16.9,25.8c-0.1,0-0.1-0.1-0.1-0.1c0.1-0.2,0.1-0.4,0-0.5
				c-0.1-0.2-0.3-0.2-0.3-0.2c0,0,0,0-0.1,0c0,0,0,0,0-0.1c0-0.1,0.1-0.3,0.1-0.4c0-0.1-0.2-0.1-0.3-0.2c0,0,0,0-0.1,0
				c0,0,0-0.1,0-0.1c0-0.1,0.1-0.3,0-0.4c-0.1-0.2-0.5-0.1-0.5-0.1c0,0-0.1,0-0.1,0c0,0,0-0.1,0-0.1c0,0,0.1-0.3-0.1-0.5
				c-0.2-0.2-0.7-0.1-0.7-0.1c0,0-0.1,0-0.1,0c0,0,0-0.1,0-0.1c0,0,0.1-0.3-0.1-0.4c-0.3-0.2-0.6,0-0.6,0.1c0,0-0.1,0-0.1,0
				c0,0,0,0,0-0.1c0,0,0-0.4-0.3-0.4c-0.3,0-0.7,0.3-0.7,0.3c0,0,0,0-0.1,0c0,0,0,0-0.1,0c0,0-0.2-0.3-0.5-0.3
				c-0.3,0-0.4,0.3-0.4,0.3c0,0,0,0-0.1,0.1c0,0-0.1,0-0.1,0c0,0-0.3-0.3-0.6-0.2c-0.4,0.1-0.4,0.6-0.5,0.7l0,0c0,0-0.1,0.1-0.1,0.1
				c0,0-0.1-0.1-0.1-0.1l0,0c0-0.2,0.2-0.7,0.6-0.8c0.3-0.1,0.5,0,0.6,0.1c0.1-0.1,0.2-0.3,0.5-0.3c0.3,0,0.5,0.2,0.6,0.3
				c0.1-0.1,0.4-0.3,0.7-0.3c0.3,0,0.4,0.2,0.5,0.4c0.1-0.1,0.4-0.2,0.7,0c0.2,0.1,0.2,0.3,0.2,0.4c0.2,0,0.5-0.1,0.8,0.2
				c0.2,0.2,0.2,0.4,0.2,0.5c0.2,0,0.4,0,0.5,0.2c0.1,0.1,0.1,0.3,0,0.4c0.1,0,0.3,0.1,0.3,0.2c0.1,0.1,0,0.4,0,0.5
				c0.1,0,0.2,0.1,0.3,0.3C17.1,25.2,17.1,25.4,16.9,25.8C17,25.7,16.9,25.8,16.9,25.8L16.9,25.8z"/>
		</g>
	</g>
</g>
</svg>
