<?xml version="1.0" encoding="utf-8"?>
<!-- Generator: Adobe Illustrator 27.9.0, SVG Export Plug-In . SVG Version: 6.00 Build 0)  -->
<svg version="1.0" id="Layer_1" xmlns="http://www.w3.org/2000/svg" xmlns:xlink="http://www.w3.org/1999/xlink" x="0px" y="0px"
	 viewBox="0 0 411.7 100.6" style="enable-background:new 0 0 411.7 100.6;" xml:space="preserve">
<style type="text/css">
	.st0{fill:none;stroke:#BCBCB3;stroke-width:0.8934;stroke-miterlimit:10;}
	.st1{fill:#011F5B;}
	.st2{fill:#FFFFFF;}
	.st3{fill:#910000;}
</style>
<g>
	<line class="st0" x1="195.7" y1="0" x2="195.7" y2="100.6"/>
	<g>
		<g>
			<path class="st1" d="M241.5,75.7c-0.6,0.1-0.9-0.1-1.1-0.7c-0.1-0.4-0.1-0.8-0.1-1.2c0-1.8,0-3.6,0-5.4c0-0.5,0-1-0.1-1.6
				c-0.2-1.4-1-2.2-2.4-2.5c-1.6-0.4-3.1-0.2-4.6,0.3c-0.6,0.2-1.1,0.6-1.2,1.3c0,0.1-0.1,0.3-0.1,0.4c-0.2,0.9-0.4,0.8,0.6,1
				c0.6,0.2,0.6,0.1,0.9-0.4c0.3-0.5,0.7-1.1,1.1-1.5c1.1-1,2.7-0.5,3.2,0.9c0.2,0.7,0.2,1.4,0.3,2.1c0,0.1-0.1,0.3-0.2,0.3
				c-0.3,0.1-0.6,0.2-0.9,0.4c-1.3,0.5-2.6,1-3.9,1.6c-1.4,0.7-2.2,1.9-2,3.5c0.1,1.2,0.6,2.2,1.7,2.7c1.1,0.5,2.2,0.5,3.2-0.2
				c0.4-0.3,0.7-0.5,1.1-0.7c0.3-0.2,0.7-0.5,1-0.7c0.2,0.6,0.4,1.1,0.6,1.7c0,0.1,0.2,0.2,0.3,0.2c1.1-0.3,2.1-0.7,3.2-1
				c0.1,0,0.2-0.2,0.2-0.3c0-0.2-0.1-0.3-0.1-0.5C241.8,75.7,241.7,75.7,241.5,75.7z M237.8,73.8c-0.4,1.3-1.1,2-2.3,2.1
				c-1.3,0.1-2.2-0.8-2.3-2c0-1,0.4-1.9,1.2-2.5c0.3-0.2,0.6-0.4,0.9-0.6c0.9-0.4,1.8-0.7,2.7-1.1C238,71.1,238.2,72.5,237.8,73.8z"
				/>
			<path class="st1" d="M270.9,75.7c-0.8,0.1-1.1-0.1-1.2-0.9c-0.1-0.4-0.1-0.8-0.1-1.2c0-4.8,0-9.5,0-14.3c0-0.2,0-0.4,0-0.6
				c-1.4,0.2-2.8,0.4-4.2,0.7c0,0.2,0,0.3,0,0.6c0.3,0,0.7,0,1,0c0.7,0,0.9,0.3,1,1c0,0.7,0,1.5,0,2.2c0,0.5,0,1,0,1.5
				c-0.6-0.1-1.2-0.2-1.7-0.3c-2-0.2-4,0.1-5.6,1.5c-2.6,2.2-3,6.7-0.8,9.5c1.7,2.2,4.2,2.7,6.6,1.3c0.5-0.3,1-0.6,1.4-0.9
				c0.2,0.5,0.3,0.9,0.4,1.4c0.1,0.3,0.3,0.3,0.5,0.2c0.9-0.3,1.9-0.6,2.8-0.9c0.2,0,0.3-0.1,0.5-0.2c-0.1-0.2-0.1-0.4-0.2-0.6
				C271.2,75.6,271.1,75.6,270.9,75.7z M267.4,70.2C267.4,70.2,267.3,70.2,267.4,70.2c0,0.9,0,1.9,0,2.8c-0.1,1.7-0.8,2.6-2.5,2.9
				c-1.3,0.3-2.3-0.2-3.1-1.2c-0.8-1-1.1-2.1-1.3-3.3c-0.2-1.6-0.1-3.2,0.8-4.6c1.3-2,4.1-2.3,5.7-0.6c0.3,0.3,0.4,0.6,0.4,1
				C267.3,68.2,267.4,69.2,267.4,70.2z"/>
			<path class="st1" d="M256.1,75c0-0.6,0-1.3,0-1.9c0-2,0-3.9-0.1-5.9c-0.1-1.5-1.1-2.5-2.5-2.8c-1.7-0.3-3.3-0.1-4.8,0.9
				c-0.5,0.3-0.9,0.7-1.4,1.1c0-0.7,0-1.3,0-1.9c-1.4,0.3-2.8,0.7-4.2,1c0,0.1,0,0.3,0,0.5c0.4,0,0.8,0,1.2,0.1
				c0.4,0,0.7,0.3,0.7,0.7c0,0.2,0,0.5,0,0.7c0,2.2,0,4.3,0,6.5c0,0.4,0,0.9-0.1,1.3c0,0.5-0.3,0.9-0.8,1c-0.4,0.1-0.7,0.1-1.1,0.2
				c0,0.2,0,0.4,0,0.6c2.1,0,4.2,0,6.2,0c0-0.2,0-0.4,0-0.6c-0.2,0-0.4-0.1-0.6-0.1c-1.1-0.2-1.3-0.4-1.4-1.5c0-1.8,0-3.5,0-5.3
				c0-0.8,0.2-1.6,0.5-2.3c0.6-1.3,2.2-1.9,3.9-1.6c0.9,0.2,1.5,0.7,1.7,1.5c0.1,0.3,0.2,0.7,0.2,1c0,2.3,0,4.6,0,6.9
				c0,0.7-0.3,1-1,1.2c-0.3,0.1-0.6,0.1-0.9,0.2c0,0.2,0,0.4,0,0.6c2.1,0,4.2,0,6.2,0c0-0.2,0-0.4,0-0.6c-0.3,0-0.5-0.1-0.8-0.1
				C256.4,76.2,256.2,76,256.1,75z"/>
		</g>
		<g>
			<path class="st1" d="M298,60.5c-1.4-1.1-3.5-1.7-6.3-1.7l-3.1,0c-0.7,0-1.6,0-3,0c-2.3,0-4,0-5.1-0.1l-0.1,0l-0.3,1.1l0.2,0
				c1,0,1.7,0.2,2.1,0.4c0.4,0.2,0.5,0.6,0.5,1c0,0.3-0.1,1-0.4,2l-5.5,20.6c-0.3,1-0.6,1.8-0.8,2.2c-0.3,0.4-0.6,0.7-1.1,0.9
				c-0.5,0.2-1.2,0.3-2.2,0.3l-0.1,0l-0.2,1.1l0.2,0c1.2-0.1,3-0.1,5.4-0.1c2.1,0,3.9,0,5.1,0.1l0.1,0l0.2-1.1l-0.2,0
				c-1,0-1.8-0.1-2.2-0.4c-0.4-0.2-0.5-0.5-0.5-1c0-0.3,0.1-0.6,0.2-1.1c0.1-0.5,0.2-0.8,0.2-1l1.9-7.3h1.1c3,0,5.8-0.5,8.2-1.5
				c2.4-1,4.3-2.3,5.6-4.1c1.3-1.7,2-3.7,2-5.9C300.1,63.2,299.4,61.6,298,60.5z M295.7,64.5c0,3.3-0.9,6-2.6,8c-1.7,2-4.5,3-8.3,3
				h-1.2l3.2-12.2c0.2-1,0.5-1.7,0.8-2.2c0.3-0.5,0.6-0.8,1.1-1c0.4-0.2,1.1-0.3,1.9-0.3c1.8,0,3.1,0.4,3.9,1.1
				C295.3,61.8,295.7,62.9,295.7,64.5z"/>
			<path class="st1" d="M316.9,68.7c0-0.7-0.2-1.3-0.7-1.8c-0.5-0.5-1.1-0.7-1.9-0.7c-1.7,0-3.2,0.9-4.5,2.6c-1,1.3-2.2,3.4-3.3,6.3
				l0.7-2.8c0.4-1.5,0.6-2.7,0.6-3.4c0-1.7-0.8-2.6-2.5-2.6c-2.4,0-4.1,1.5-5.2,4.4l-1.1,3.2h1.1l0.6-1.6c0.5-1.5,1-2.6,1.5-3.2
				c0.5-0.6,1-0.9,1.6-0.9c0.5,0,0.7,0.2,0.7,0.8c0,0.5-0.1,1-0.3,1.6l-5,17.8l-0.1,0.2h3.9L304,85c1.5-5.2,3.2-9.5,4.9-12.7
				c1.7-3.2,3.3-4.8,4.7-4.8c0,0,0.1,0,0.1,0c-0.5,0.2-0.9,0.6-1.1,1c-0.4,0.5-0.5,1-0.5,1.7c0,0.5,0.2,0.9,0.5,1.2
				c0.3,0.3,0.8,0.4,1.3,0.4c0.8,0,1.5-0.3,2.1-0.9C316.6,70.3,316.9,69.6,316.9,68.7z"/>
			<path class="st1" d="M330,66.8l-0.1,0l-0.5,1.9c-0.1-0.7-0.4-1.2-0.8-1.6c-0.5-0.6-1.2-0.9-1.9-0.9c-2,0-4,1-5.9,2.9
				c-1.9,1.9-3.5,4.3-4.7,7.1s-1.8,5.3-1.8,7.6c0,1.5,0.3,2.8,1,3.7c0.7,0.9,1.7,1.4,3,1.4c1.5,0,3-0.7,4.4-2.1
				c1.1-1.2,2.3-2.9,3.4-5.2l-0.3,1.3c-0.1,0.2-0.2,0.7-0.4,1.4c-0.2,0.7-0.3,1.4-0.3,2c0,0.6,0.1,1.1,0.4,1.5
				c0.2,0.4,0.6,0.6,1,0.8c0.4,0.2,0.9,0.3,1.4,0.3c0.9,0,1.9-0.4,2.7-1c0.9-0.7,1.6-1.8,2.2-3.4l1.1-3.2h-1.1l-0.5,1.6
				c-0.9,2.7-1.9,4.1-3,4.1c-0.5,0-0.8-0.3-0.8-0.9c0-0.3,0-0.5,0.1-0.9c0.1-0.3,0.1-0.5,0.2-0.6l5.2-18.3l0.1-0.3l-0.3,0.1
				C332.7,66.5,331.5,66.7,330,66.8z M319.5,87.3c-0.4,0-0.7-0.2-0.9-0.7c-0.2-0.5-0.4-1.3-0.4-2.4c0-2.3,0.5-4.9,1.3-7.6
				c0.9-2.7,2-4.9,3.3-6.8c1.3-1.8,2.5-2.7,3.6-2.7c0.7,0,1.2,0.3,1.5,0.9c0.4,0.6,0.6,1.5,0.6,2.6c0,0.4,0,0.7,0,0.9l-0.7,2.9
				c-0.7,2.2-1.5,4.3-2.5,6.3c-1,2-2.1,3.5-3.2,4.7C321.1,86.8,320.3,87.3,319.5,87.3z"/>
			<path class="st1" d="M351.5,67.2c-0.9-0.7-2-1-3.3-1c-2.5,0-4.7,0.9-6.6,2.7c-1.9,1.8-3.4,4-4.5,6.6c-1.1,2.6-1.6,5-1.6,7.3
				c0,2,0.5,3.6,1.5,4.6c1,1.1,2.4,1.6,4.1,1.6c1.7,0,3.3-0.6,4.8-1.7c1.5-1.1,2.7-2.4,3.6-4l0.1-0.2l-1.1-0.4l-0.1,0.1
				c-1.8,2.7-3.9,4.1-6.1,4.1c-0.9,0-1.5-0.3-2-0.9c-0.5-0.6-0.7-1.6-0.7-2.9c0-2.7,0.4-5.3,1.3-7.7c0.9-2.4,2-4.4,3.3-5.9
				c1.3-1.5,2.7-2.2,4-2.2c1.1,0,2,0.3,2.6,1c-0.8,0.2-1.5,0.6-2,1.1c-0.6,0.6-1,1.3-1,2.1c0,0.5,0.2,0.9,0.5,1.3
				c0.3,0.3,0.8,0.5,1.4,0.5c0.9,0,1.7-0.4,2.2-1.1c0.6-0.7,0.9-1.5,0.9-2.4C352.9,68.8,352.4,67.8,351.5,67.2z"/>
			<path class="st1" d="M362.4,83.1c-0.6,1.5-1.2,2.6-1.7,3.2c-0.6,0.6-1.2,0.8-1.8,0.8c-0.5,0-0.9-0.1-1.2-0.4
				c-0.3-0.2-0.4-0.6-0.4-1.1c0-0.3,0-0.6,0.1-0.9l4.8-16.8h5.6l0.2-1.1h-5.4l2-7l-0.3,0.1c-1,0.3-2.2,0.5-3.7,0.6l-0.1,0l-1.8,6.3
				h-3.7l-0.3,1.1h3.7L353.9,83c-0.3,0.9-0.4,1.7-0.4,2.4c0,1.1,0.3,2,1,2.6c0.6,0.6,1.6,1,2.9,1c1.4,0,2.6-0.4,3.5-1.1
				c0.9-0.7,1.7-2,2.3-3.7l0.9-2.8H363L362.4,83.1z"/>
			<path class="st1" d="M374.3,83c-0.6,1.5-1.1,2.6-1.6,3.2c-0.5,0.6-1,0.9-1.5,0.9c-0.6,0-0.8-0.3-0.8-0.9c0-0.3,0.1-0.8,0.3-1.5
				l4.4-12.6c0.4-1.2,0.7-2.3,0.7-3.2c0-1.8-1-2.8-2.9-2.8c-1,0-2.1,0.3-3,1c-0.9,0.7-1.7,1.8-2.3,3.4l-1.2,3.2h1.1l0.6-1.6
				c0.5-1.5,1.1-2.5,1.6-3.2c0.5-0.6,1-0.9,1.6-0.9c0.3,0,0.8,0.1,0.8,0.9c0,0.3-0.1,0.8-0.3,1.5L367.3,83c-0.5,1.4-0.8,2.5-0.8,3.3
				c0,1.8,1,2.7,3.1,2.7c1.1,0,2.1-0.3,3-1c0.9-0.7,1.7-1.8,2.2-3.3l1.2-3.2h-1.1L374.3,83z"/>
			<path class="st1" d="M377.9,57.2c-0.4-0.4-1-0.7-1.6-0.7c-0.8,0-1.6,0.3-2.2,1v0c-0.6,0.7-1,1.5-1,2.3c0,0.6,0.2,1.2,0.6,1.6
				c0.4,0.4,1,0.6,1.6,0.6c0.8,0,1.6-0.3,2.3-1c0.7-0.7,1-1.4,1-2.3C378.5,58.2,378.3,57.7,377.9,57.2z"/>
			<path class="st1" d="M393.7,67.2c-0.9-0.7-2-1-3.3-1c-2.5,0-4.7,0.9-6.6,2.7c-1.9,1.8-3.4,4-4.5,6.6c-1.1,2.6-1.6,5-1.6,7.3
				c0,2,0.5,3.6,1.5,4.6c1,1.1,2.4,1.6,4.1,1.6c1.7,0,3.3-0.6,4.8-1.7c1.5-1.1,2.7-2.4,3.6-4l0.1-0.2l-1.1-0.4l-0.1,0.1
				c-1.8,2.7-3.9,4.1-6.1,4.1c-0.9,0-1.5-0.3-2-0.9c-0.5-0.6-0.7-1.6-0.7-2.9c0-2.7,0.4-5.3,1.3-7.7c0.9-2.4,2-4.4,3.3-5.9
				c1.3-1.5,2.7-2.2,4-2.2c1.1,0,2,0.3,2.6,1c-0.8,0.2-1.5,0.6-2,1.1c-0.6,0.6-1,1.3-1,2.1c0,0.5,0.2,0.9,0.5,1.3
				c0.3,0.3,0.8,0.5,1.4,0.5c0.9,0,1.7-0.4,2.2-1.1c0.6-0.7,0.9-1.5,0.9-2.4C395,68.8,394.6,67.8,393.7,67.2z"/>
			<path class="st1" d="M408.5,66.2c-2.5,0-4.8,0.9-6.9,2.8c-2.1,1.9-3.8,4.1-5,6.8c-1.2,2.6-1.9,5.1-1.9,7.2c0,1.9,0.5,3.4,1.5,4.5
				c1,1,2.4,1.5,4.1,1.5c1.7,0,3.3-0.6,4.8-1.7c1.5-1.1,2.7-2.4,3.6-4l0.1-0.1l-0.9-0.5l-0.1,0.1c-1.8,2.7-3.9,4.1-6.3,4.1
				c-1.8,0-2.7-1.3-2.7-3.8c0-1.3,0.1-2.6,0.4-3.9c3.2-1,6.1-2.4,8.6-4.1c2.5-1.7,3.8-3.7,3.8-6c0-0.9-0.3-1.7-0.9-2.2
				C410.2,66.4,409.4,66.2,408.5,66.2z M408.1,69c0,1.3-0.3,2.5-0.8,3.6c-0.6,1.1-1.3,2.1-2.3,2.9c-1.1,0.8-2.9,1.7-5.3,2.5
				c0.5-1.8,1.2-3.5,2.1-5.2c0.9-1.7,2-3.1,3-4.1c1.1-1,2-1.5,2.9-1.5c0.1,0,0.2,0,0.4,0.3C408,67.7,408.1,68.1,408.1,69z"/>
		</g>
		<g>
			<path class="st1" d="M307.9,25.2c1.9,0,3.8,0,5.8,0c0-0.2,0-0.4,0-0.6c-0.3-0.1-0.7-0.1-1-0.2c-0.7-0.1-0.9-0.4-0.9-1
				c0-2,0-4.1,0.1-6.1c0-0.8,0.3-1.5,0.8-2.1c1-1.1,2.2-1.1,3.5-0.9c0.8,0.1,1.3,0.6,1.5,1.4c0.2,0.6,0.3,1.2,0.3,1.8
				c0,1.8,0,3.6,0,5.4c0,0.2,0,0.5-0.1,0.7c0,0.5-0.3,0.8-0.9,0.9c-0.3,0.1-0.7,0.1-1,0.2c0,0.2,0,0.4,0,0.6c2,0,4,0,6,0
				c0-0.2,0-0.4,0-0.6c-0.1,0-0.2,0-0.2,0c-1.5-0.2-1.7-0.3-1.7-1.9c0-1.9,0-3.8,0-5.7c0-0.5,0-1-0.1-1.5c-0.2-1.2-0.9-2.1-2.1-2.5
				c-2-0.5-3.8-0.1-5.4,1.1c-0.3,0.2-0.6,0.5-0.9,0.8c0-0.7,0-1.4,0-2.1c-1.3,0.7-2.7,0.9-4.1,1c0,0.2,0,0.4,0,0.6
				c0.2,0,0.4,0,0.6,0c1,0,1.3,0.3,1.3,1.3c0,2.3,0,4.6,0,6.9c0,0.3,0,0.6,0,0.9c0,0.6-0.4,0.9-0.9,1c-0.3,0.1-0.6,0.1-0.9,0.2
				c-0.3,0-0.5-0.1-0.8-0.1c-0.6-0.1-0.8-0.4-0.9-1c0-0.4-0.1-0.8-0.1-1.2c0-3,0-5.9,0-8.9c0-0.2,0-0.3,0-0.5
				c-1.3,0.7-2.7,0.9-4.1,1c0,0.2,0,0.4,0,0.6c0.4,0,0.7,0,1,0c0.6,0,0.8,0.3,0.9,0.8c0,0.1,0,0.3,0,0.4c0,2.3,0,4.6,0,7
				c0,0.3,0,0.6-0.1,0.9c0,0.4-0.3,0.7-0.7,0.8c-0.4,0.1-0.7,0.1-1.1,0.2c0,0.2,0,0.4,0,0.6C303.9,25.2,305.9,25.2,307.9,25.2
				C307.9,25.2,307.9,25.2,307.9,25.2z"/>
			<path class="st1" d="M304.6,11.2c0.8,0,1.4-0.6,1.4-1.4c0-0.8-0.6-1.4-1.4-1.4c-0.8,0-1.4,0.6-1.4,1.4
				C303.2,10.6,303.8,11.2,304.6,11.2z"/>
		</g>
		<g>
			<path class="st1" d="M255.1,51.2c-3.6-0.4-3.4-0.2-3.4-3.9V25.7h2.4c4.4,0,6.6,2.1,6.6,6.5c0,4.4-2.3,7.3-7.3,7.3v0.8
				c6.1,0.4,11.2-2.7,11.2-8.4c0-4.8-3.2-7.4-9.8-7.4h-10.4v1c3.6,0.4,3.4,0.2,3.4,3.9v17.8c0,3.7,0.2,3.5-3.4,3.9v1h10.7V51.2z"/>
			<path class="st1" d="M276.3,51.2c-2.1-0.2-3.6-0.3-3.7-1.1c-0.2-1-0.2-1.5-0.2-2.8v-6.2c0-2.9,0.3-5.5,1.9-5.5
				c0.6,0,1.1,0,1.5,0.2l1.4,0.7c0.2,0.1,0.4,0.2,0.6,0l1.1-0.8c0.2-0.2,0.4-0.3,0.3-0.6l-1.1-2c-0.6-1.1-1.1-1.2-1.5-1.2
				c-0.7,0-1.2,0.5-2.2,1.5l-2.1,2.1V32l-0.1-0.1c-1.8,1.1-4.5,1.6-6.6,1.7v1c1.9,0,3.1-0.2,3.1,1.7v11c0,3.6,0.2,3.4-3.2,3.9v1
				h10.6V51.2z"/>
			<path class="st1" d="M289.6,51.2c-3.4-0.5-3.2-0.4-3.2-3.9V32l-0.1-0.1c-1.8,1.1-4.5,1.6-6.7,1.7v1c1.9,0,3.2-0.2,3.2,1.7v11
				c0,3.6,0.2,3.4-3.2,3.9v1h9.9V51.2z"/>
			<path class="st1" d="M284.3,29.3c1.2,0,2.3-1.1,2.3-2.3c0-1.2-1.1-2.3-2.3-2.3c-1.2,0-2.3,1-2.3,2.3
				C281.9,28.3,283,29.3,284.3,29.3z"/>
			<path class="st1" d="M300.7,51.2c-3.4-0.5-3.2-0.4-3.2-3.9v-4.8c0-4.1,0.8-8.4,5.9-8.4c4.2,0,4.4,3.5,4.4,6v7.3
				c0,3.6,0.2,3.4-3.2,3.9v1h9.9v-1c-3.4-0.5-3.2-0.4-3.2-3.9v-8.3c0-4.1-1-7-5.8-7c-3.4,0-6.3,1.5-8,3.5V32l-0.1-0.1
				c-1.8,1.1-4.5,1.6-6.7,1.7v1c1.9,0,3.2-0.2,3.2,1.7v11c0,3.6,0.2,3.4-3.2,3.9v1h9.9V51.2z"/>
			<path class="st1" d="M315,42.2c0,2.9,1.4,6,2.7,7.4c3.1,3.5,7.7,3.1,8.7,3.1l5.3-2.5l-0.7-1.2c-1,0.5-2.3,1.5-4.4,1.5
				c-5.7,0-7.6-5.3-7.6-9.5c0-5.7,3.5-7.6,5.9-7.6c1.5,0,2.6,0.6,3.1,1.3l2,2.3c0.2,0.1,0.4,0.1,0.6,0l1.4-0.9
				c0.1-0.1,0.1-0.2,0-0.4l-1.4-2.7c-1.3-0.8-3.4-1-4.9-1C319.8,31.9,315,36,315,42.2z"/>
			<path class="st1" d="M342.6,51.2c-3.4-0.5-3.2-0.4-3.2-3.9V32l-0.1-0.1c-1.8,1.1-4.5,1.6-6.7,1.7v1c1.9,0,3.2-0.2,3.2,1.7v11
				c0,3.6,0.2,3.4-3.2,3.9v1h9.9V51.2z"/>
			<path class="st1" d="M337.3,29.3c1.2,0,2.3-1.1,2.3-2.3c0-1.2-1.1-2.3-2.3-2.3c-1.2,0-2.3,1-2.3,2.3
				C335,28.3,336,29.3,337.3,29.3z"/>
			<path class="st1" d="M345.7,36.3v20.9c0,3.6,0.2,3.4-3.2,3.9v1h11v-1c-2.5-0.2-3.9-0.3-4.1-1.1c-0.2-1-0.2-1.5-0.2-2.8v-5.3
				c1.8,0.7,3.1,0.9,4.8,0.9c6.9,0,10.2-6.2,10.2-10.8c0-7.6-3.9-10-8.3-10c-2.5,0-5,1.2-6.6,3.2h-0.1V32l-0.1-0.1
				c-1.8,1.1-4.5,1.6-6.7,1.7v1C344.5,34.6,345.7,34.4,345.7,36.3z M349.3,42.5c0-2,0.1-4.3,0.7-5.8c0.6-1.8,2.3-3,4.4-3
				c3,0,6,2.1,6,8.2c0,3.6-0.7,9.4-6.5,9.4c-1.7,0-3.2-0.6-4.6-1.8V42.5z"/>
			<path class="st1" d="M375.6,51.2c-3.4-0.5-3.2-0.4-3.2-3.9V23.2l-0.1-0.1c-1.7,0.6-4.3,1.1-6.7,1.2v1h1.7c1,0,1.5,0.7,1.5,1.7
				v20.2c0,3.6,0.2,3.4-3.2,3.9v1h9.9V51.2z"/>
			<path class="st1" d="M387.3,52.7h1.2l5.2-2.5l-0.6-1.2c-1,0.5-2.3,1.4-4.4,1.4c-5.7,0-7.8-4.6-7.8-9.2h12.8v-1.1
				c0-5-2.9-8.2-7.4-8.2c-6.7,0-9.2,5.7-9.2,10.3c0,3,1.5,6.1,2.7,7.4C383,53.2,386.3,52.7,387.3,52.7z M386.1,33.3
				c2.2,0,4.2,1.7,4.2,4.3c0,1.7-1.1,2.3-2,2.3h-7.4C380.9,34.9,383.5,33.3,386.1,33.3z"/>
		</g>
	</g>
	<g>
		<g>
			<path class="st1" d="M54.2,45.8c1.9,0.6,3,0.7,5.1,0.7c6.1,0,10-3.3,10-8.9c0-4.4-2.5-10.3-10-10.3h-5.1V45.8L54.2,45.8z
				 M54.2,59.3c0,5.1,1.2,6.6,4.7,6.6v1.2H44v-1.2c2.9,0,4.7-0.9,4.7-6.4V33.5c0-5.1-1.2-6.6-4.7-6.6v-1.2h15.1
				c11.4,0,16,6.1,16,11.8c0,6.9-5.2,10.7-14.6,10.7c-1.8,0-3.3-0.1-6.4-0.4V59.3L54.2,59.3z"/>
			<path class="st1" d="M90,50.2c0.2-5.6-3.6-7.9-6.9-7.9c-4.3,0-6.8,3.2-7.1,7.9H90L90,50.2z M76.1,51.5
				c-0.1,11.5,6.7,14.4,10.2,14.4c3.5,0,5.3-1.2,9-5.3v1.9c-3.1,4-6.1,5.5-10.5,5.5c-8,0-13.8-5.6-13.8-13.3
				c0-7.7,5.6-13.8,12.8-13.8c5.9,0,11.4,4.8,11,10.7H76.1L76.1,51.5z"/>
			<path class="st1" d="M122.6,61.5c0,3.3,0.7,4.3,4.3,4.3v1.2h-13.6v-1.2c3.5,0,4.4-0.8,4.4-3.2V49.3c0-4.1-3-5.8-5.7-5.8
				c-2.5,0-4.8,1.6-7.3,5v12.5c0,3.9,0.5,4.9,4.3,4.9v1.2H95.5v-1.2c3.4,0,4.3-0.3,4.3-4.9V46.6c0-3.1-0.8-3.8-4.3-3.8v-1.2l7.9-0.8
				h1.2v5.1c3-3.5,6-5.1,9.2-5.1c4.3,0,8.7,3,8.7,9.2V61.5L122.6,61.5z"/>
			<path class="st1" d="M153.8,61.5c0,3.3,0.7,4.3,4.3,4.3v1.2h-13.6v-1.2c3.5,0,4.4-0.8,4.4-3.2V49.3c0-4.1-3-5.8-5.7-5.8
				c-2.5,0-4.8,1.6-7.3,5v12.5c0,3.9,0.5,4.9,4.3,4.9v1.2h-13.5v-1.2c3.4,0,4.3-0.3,4.3-4.9V46.6c0-3.1-0.8-3.8-4.3-3.8v-1.2
				l7.9-0.8h1.2v5.1c3-3.5,6-5.1,9.2-5.1c4.3,0,8.7,3,8.7,9.2V61.5L153.8,61.5z"/>
		</g>
		<g>
			<path class="st2" d="M37.4,25H0c0,0,0,18.5,0,18.6c0,8.1,4.5,14,8.3,17.5c4.2,3.9,8.7,6.1,10.3,6.4l0.2,0l0.2,0
				c1.5-0.3,6.1-2.6,10.3-6.4c3.8-3.5,8.3-9.4,8.3-17.5C37.4,43.4,37.4,25,37.4,25L37.4,25z"/>
			<path class="st3" d="M35.1,32.8L35.1,32.8c0.1,0,0.1,0.1,0.2,0.1c0,0.1,0.1,0.1,0.1,0.2c0,0.1,0,0.2-0.1,0.2
				c0,0.1-0.1,0.1-0.2,0.1c-0.1,0.1-0.2,0.1-0.2,0.2v0.7l-3.9,0l-3.9,0v-0.7c0-0.1-0.1-0.2-0.2-0.2c-0.1,0-0.1-0.1-0.2-0.1
				c0-0.1-0.1-0.1-0.1-0.2c0-0.1,0-0.2,0.1-0.2c0-0.1,0.1-0.1,0.2-0.1c0.1-0.1,0.2-0.1,0.2-0.2v-2.2c0-0.1-0.1-0.2-0.2-0.2
				c-0.1,0-0.1-0.1-0.2-0.1c0-0.1-0.1-0.1-0.1-0.2c0-0.1,0-0.2,0.1-0.2c0-0.1,0.1-0.1,0.2-0.1c0.1-0.1,0.2-0.1,0.2-0.2v-0.7h0.1
				c0.5,0,0.9,0,1.1-0.1c0.1,0,0.2-0.1,0.3-0.2c0.2-0.2,0.5-0.3,0.9-0.3c0.3,0,0.6,0.1,0.9,0.2c0.2,0.1,0.4,0.1,0.5,0.1H31
				c0.1,0,0.3-0.1,0.5-0.1c0.3-0.1,0.6-0.2,0.9-0.2c0.4,0,0.7,0.2,0.9,0.3c0.1,0.1,0.2,0.1,0.3,0.2c0.3,0.1,0.7,0.1,1.1,0.1h0.1v0.7
				c0,0.1,0.1,0.2,0.2,0.2c0.1,0,0.1,0.1,0.2,0.1c0,0.1,0.1,0.1,0.1,0.2c0,0.1,0,0.2-0.1,0.2c0,0.1-0.1,0.1-0.2,0.1
				c-0.1,0.1-0.2,0.1-0.2,0.2v2.2C34.9,32.7,35,32.8,35.1,32.8L35.1,32.8z M25.5,34c-0.6,1-1.8,1.2-1.8,1.2c-0.2,0-0.5,0.1-0.7,0.1
				h0c-1.2,0-2.4-0.5-3.5-1.1c-0.1-0.1-0.3-0.1-0.4-0.2c-0.7-0.4-1.8-1-2.6-1c-0.3,0-0.5,0-0.7,0.2l0,0l0,0c0,0.1,0,0.2-0.1,0.3
				c-0.1,0.4-0.6,0.8-0.8,0.9c-0.5,0.4-1.1,0.7-1.9,0.7c-0.1,0-0.2,0-0.3,0c-0.1,0-0.3-0.1-0.3-0.2c0-0.1-0.1-0.1-0.1-0.2
				c0-0.1,0-0.1,0-0.2l0,0l0,0c-0.3-0.1-0.5-0.3-0.5-0.5c0-0.2,0.1-0.3,0.3-0.5c0.2-0.2,0.4-0.4,0.1-0.7c0,0-0.1,0-0.1-0.1
				c0,0-0.1-0.1-0.1-0.1c-0.2-0.3-0.1-0.8,0-1.1l0,0c0.1-0.4,0.2-0.7,0.4-1.1c0.3-0.5,0.6-1.2,1.1-1.6c0,0,0,0,0,0c0,0,0,0,0,0
				c0,0,0.1,0.1,0.1,0.2l0.1,0.1l0-0.1c0.1-0.4,0.3-0.6,0.6-0.7c0.3-0.1,0.6,0,0.8,0.2l0.1,0l0-0.1c0.1-0.2,0.3-0.3,0.6-0.3
				c0.3,0,0.6,0.2,0.7,0.3l0,0l0.1,0c0.1-0.1,0.5-0.4,0.9-0.3c0.4,0,0.5,0.4,0.5,0.5l0,0.1l0.1,0c0.2-0.1,0.5-0.2,0.8,0
				c0.2,0.1,0.2,0.3,0.2,0.5l0,0.1l0.1,0c0.2,0,0.6-0.1,0.9,0.2c0.2,0.2,0.2,0.5,0.2,0.6l0,0.1l0.1,0c0.2,0,0.5,0,0.6,0.2
				c0.1,0.2,0.1,0.4,0,0.5l0,0.1l0.1,0c0.1,0,0.3,0.1,0.4,0.3c0,0.1,0,0.3,0,0.6l0,0.1l0.1,0c0.1,0,0.3,0.1,0.4,0.3
				c0.1,0.2,0.1,0.4,0,0.7l0,0l0,0c0.3,0.2,0.5,0.4,0.8,0.6c0.5,0.4,1.3,0.6,1.9,0.1c0.2-0.2,0.3-0.5,0.2-0.8
				c-0.1-0.3-0.2-0.4-0.5-0.5c-0.4-0.1-0.7,0.3-1,0.7c0,0,0,0,0,0c0,0,0,0,0,0c-0.2-0.6-0.3-1.1,0-1.5c0.2-0.3,0.6-0.5,1-0.6l0.1,0
				l0-0.1c0-0.7,0.2-1.2,0.5-1.5c0.2-0.2,0.6-0.4,1.2-0.3c0,0,0,0,0,0c0,0,0,0,0,0c-0.5,1.1-0.4,1.5-0.1,2.5c0,0.1,0,0.2,0.1,0.3v0
				C25.9,32.6,25.9,33.4,25.5,34L25.5,34z M10.5,32.8L10.5,32.8c0.1,0,0.1,0.1,0.2,0.1c0,0.1,0.1,0.1,0.1,0.2c0,0.1,0,0.2-0.1,0.2
				c0,0.1-0.1,0.1-0.2,0.1c-0.1,0.1-0.2,0.1-0.2,0.2v0.7l-3.9,0l-3.9,0v-0.7c0-0.1-0.1-0.2-0.2-0.2c-0.1,0-0.1-0.1-0.2-0.1
				c0-0.1-0.1-0.1-0.1-0.2c0-0.1,0-0.2,0.1-0.2c0-0.1,0.1-0.1,0.2-0.1c0.1-0.1,0.2-0.1,0.2-0.2v-2.2c0-0.1-0.1-0.2-0.2-0.2
				c-0.1,0-0.1-0.1-0.2-0.1c0-0.1-0.1-0.1-0.1-0.2c0-0.1,0-0.2,0.1-0.2c0-0.1,0.1-0.1,0.2-0.1c0.1-0.1,0.2-0.1,0.2-0.2v-0.7h0.1
				c0.5,0,0.9,0,1.1-0.1c0.1,0,0.2-0.1,0.3-0.2c0.2-0.2,0.5-0.3,0.9-0.3c0.3,0,0.6,0.1,0.9,0.2c0.2,0.1,0.4,0.1,0.5,0.1h0.1
				c0.1,0,0.3-0.1,0.5-0.1c0.3-0.1,0.6-0.2,0.9-0.2c0.4,0,0.7,0.2,0.9,0.3c0.1,0.1,0.2,0.1,0.3,0.2c0.3,0.1,0.7,0.1,1.1,0.1h0.1v0.7
				c0,0.1,0.1,0.2,0.2,0.2c0.1,0,0.1,0.1,0.2,0.1c0,0.1,0.1,0.1,0.1,0.2c0,0.1,0,0.2-0.1,0.2c0,0.1-0.1,0.1-0.2,0.1
				c-0.1,0.1-0.2,0.1-0.2,0.2v2.2C10.3,32.7,10.4,32.8,10.5,32.8L10.5,32.8z M0.9,26c0,0,0,10.8,0,10.8l35.5,0c0-5.1,0-10.8,0-10.8
				H0.9L0.9,26z"/>
			<path class="st1" d="M13.2,32.4c0.1,0,0.2,0,0.4,0.1c0,0,0.1,0.1,0.1,0.1c0.1,0.1,0.1,0.2,0,0.3c-0.1,0.1-0.2,0.1-0.3,0.2
				c-0.1,0.1-0.4,0.3-0.6,0.1c-0.1-0.1,0.1-0.2,0-0.5C12.8,32.5,13,32.4,13.2,32.4L13.2,32.4z"/>
			<path class="st1" d="M13.2,28.9c-0.4,0.4-0.7,0.9-0.9,1.4c-0.2,0.4-0.3,0.8-0.4,1.1l0,0c-0.1,0.3-0.2,0.8,0,1
				c0,0,0.1,0.1,0.1,0.1c0,0,0.1,0.1,0.1,0.1c0.4,0.4,0.1,0.7-0.1,0.9c-0.1,0.1-0.2,0.3-0.2,0.4c0,0.3,0.3,0.4,0.4,0.4
				c0,0,0.1,0.1,0.1,0.1c0,0.1,0,0.1,0,0.2c0,0.1,0.1,0.1,0.1,0.1c0.1,0.1,0.2,0.2,0.3,0.2c0.1,0,0.2,0,0.3,0c0.7,0,1.3-0.4,1.8-0.7
				c0.3-0.2,0.7-0.6,0.8-0.8c0-0.1,0-0.2,0.1-0.2L15,33.1c0,0,0,0,0,0c-0.1,0-0.1-0.1-0.1-0.1c0-0.1,0.1-0.2,0.3-0.3
				c0.1,0,0.1-0.1,0.2-0.1c0.3-0.2,0.5-0.4,0.6-0.4c-0.1-0.2-0.3-0.3-0.4-0.5c-0.1-0.1-0.1-0.2-0.2-0.3c-0.3-0.3-0.7-0.4-1.1-0.2
				c-0.1,0.1-0.3,0.2-0.4,0.3c-0.1,0.1-0.2,0.2-0.3,0.3c0,0-0.1,0-0.2,0c0,0,0-0.1,0-0.2c0,0,0,0,0.1-0.1c0.2-0.2,0.5-0.5,0.5-0.8
				C14,30.2,13.4,29.2,13.2,28.9L13.2,28.9z M16.4,32.8c0.9,0,1.9,0.6,2.7,1c0.2,0.1,0.3,0.2,0.4,0.2c1.3,0.7,2.7,1.3,4.1,1
				c0,0,1.2-0.2,1.7-1.1c0.4-0.6,0.4-1.3,0.2-2.1c0-0.1,0-0.2-0.1-0.3c-0.2-0.9-0.4-1.4,0-2.4c-0.5,0-0.8,0.1-0.9,0.3
				c-0.3,0.3-0.5,0.8-0.4,1.5c0,0.1,0,0.1-0.1,0.1c-0.4,0-0.8,0.3-1,0.6c-0.2,0.3-0.2,0.7,0,1.1c0.2-0.3,0.6-0.7,1.1-0.6
				c0.3,0.1,0.5,0.3,0.6,0.6c0.1,0.4,0,0.7-0.3,0.9c-0.6,0.5-1.5,0.3-2.1-0.1c-0.7-0.5-1.3-1.1-2-1.9c-0.1-0.1-0.2-0.3-0.4-0.4
				c-0.4-0.5-0.9-1-1.4-1.5c-0.8-0.7-1.9-0.8-2.5-0.7c-0.5,0-1.4,0.2-2.1,0.5c0.2,0.4,0.4,0.9,0.4,1.2c0,0.1,0,0.1,0,0.2
				c0.5-0.3,1-0.1,1.3,0.3c0.1,0.1,0.1,0.2,0.2,0.3c0.1,0.2,0.3,0.4,0.4,0.5c0,0,0,0.1,0,0.1c0,0,0,0.1,0,0.1c0,0-0.3,0.2-0.7,0.5
				c-0.1,0-0.1,0.1-0.2,0.1c0,0,0,0,0,0l0.4,0.1C15.9,32.8,16.1,32.8,16.4,32.8L16.4,32.8z M23,35.3c-1.2,0-2.4-0.5-3.5-1.1
				C19.3,34.1,19.2,34,19,34c-0.9-0.5-2.3-1.3-3.3-0.8c0,0.1,0,0.2-0.1,0.3c-0.1,0.4-0.6,0.8-0.8,0.9c-0.5,0.4-1.1,0.7-1.9,0.7
				c-0.1,0-0.2,0-0.3-0.1c-0.2-0.1-0.3-0.1-0.4-0.3c0-0.1-0.1-0.1-0.1-0.2c0-0.1,0-0.1,0-0.2c-0.3-0.1-0.5-0.3-0.5-0.6
				c0-0.2,0.1-0.4,0.3-0.5c0.2-0.3,0.3-0.4,0.1-0.6c0,0-0.1,0-0.1-0.1c0,0-0.1-0.1-0.1-0.1c-0.3-0.3-0.1-0.9,0-1.2l0,0
				c0.1-0.4,0.2-0.7,0.4-1.1c0.3-0.6,0.6-1.2,1.1-1.6c0,0,0.1,0,0.1,0c0,0,0.1,0,0.1,0c0,0,0.2,0.3,0.4,0.7c0.8-0.5,2-0.6,2.1-0.6
				c0.7,0,1.8,0.1,2.7,0.8c0.6,0.4,1,1,1.5,1.5c0.1,0.1,0.2,0.3,0.4,0.4c0.7,0.8,1.3,1.4,2,1.9c0.5,0.4,1.3,0.6,1.8,0.1
				c0.2-0.2,0.3-0.4,0.2-0.7c-0.1-0.2-0.2-0.4-0.4-0.4c-0.4-0.1-0.7,0.3-0.9,0.7c0,0-0.1,0.1-0.1,0c0,0-0.1,0-0.1-0.1
				c-0.3-0.6-0.3-1.1,0-1.5c0.2-0.3,0.6-0.6,1.1-0.6c0-0.7,0.2-1.3,0.5-1.6c0.2-0.2,0.6-0.4,1.3-0.3c0,0,0.1,0,0.1,0.1
				c0,0,0,0.1,0,0.1c-0.5,1.1-0.3,1.5-0.1,2.4c0,0.1,0,0.2,0.1,0.3c0.2,0.9,0.2,1.7-0.2,2.3c-0.6,1-1.8,1.2-1.9,1.2
				C23.4,35.3,23.2,35.3,23,35.3L23,35.3z"/>
			<path class="st1" d="M12.5,34.5c-0.1,0-0.2,0-0.3,0c-0.1,0-0.1-0.1-0.1-0.1c0-0.1,0.1-0.1,0.1-0.1c0.5,0.1,1.3,0,1.9-0.7
				c0,0,0.1,0,0.2,0c0,0,0,0.1,0,0.2C13.8,34.3,13.2,34.5,12.5,34.5L12.5,34.5z"/>
			<path class="st1" d="M21,34.3C21,34.3,21,34.3,21,34.3c-0.1,0-0.1-0.1-0.1-0.1c0-0.4-0.2-0.5-0.4-0.5c-0.1,0-0.1,0-0.1-0.1
				c-0.1-0.1-0.1-0.2-0.1-0.3c0-0.2,0-0.3-0.1-0.4c-0.2-0.2-0.6-0.1-0.6-0.1c0,0-0.1,0-0.1,0c0,0,0-0.1,0-0.1c0,0,0.1-0.4-0.2-0.6
				c-0.2-0.2-0.6-0.1-0.7-0.1c0,0-0.1,0-0.1,0c0,0,0-0.1,0-0.1c0-0.3-0.1-0.5-0.3-0.6c-0.2-0.1-0.4-0.1-0.5,0
				c-0.4,0.2-0.6,0.3-1.1-0.1c-0.1-0.1-0.3-0.1-0.4-0.1c-0.2,0-0.3,0.2-0.5,0.4c0,0.1-0.1,0.1-0.1,0c-0.1,0-0.1-0.1,0-0.1
				c0.1-0.3,0.4-0.5,0.6-0.6c0.2-0.1,0.4,0,0.6,0.1c0.4,0.3,0.5,0.3,0.9,0.1c0.2-0.1,0.5-0.1,0.8,0c0.2,0.1,0.4,0.4,0.4,0.7
				c0.2,0,0.6,0,0.8,0.2c0.2,0.2,0.3,0.5,0.3,0.7c0.2,0,0.5,0,0.7,0.2c0.2,0.2,0.2,0.4,0.2,0.6c0,0.1,0,0.1,0,0.2c0,0,0.1,0,0.1,0
				c0.2,0.1,0.6,0.2,0.5,0.8C21.1,34.3,21.1,34.3,21,34.3L21,34.3z"/>
			<path class="st1" d="M10.5,33.2c0,0,0,0.1,0,0.1c0,0-0.1,0.1-0.1,0.1c-0.1,0.1-0.2,0.2-0.2,0.4v0.5H6.4h0H2.6v-0.5
				c0-0.2-0.1-0.3-0.2-0.4c0,0-0.1-0.1-0.1-0.1c0,0,0-0.1,0-0.1v0v0c0,0,0-0.1,0-0.1c0,0,0.1-0.1,0.1-0.1c0.1-0.1,0.2-0.2,0.2-0.4
				v-2.2c0-0.2-0.1-0.3-0.2-0.4c0,0-0.1-0.1-0.1-0.1c0,0,0-0.1,0-0.1v0v0c0,0,0-0.1,0-0.1c0,0,0.1-0.1,0.1-0.1
				c0.1-0.1,0.2-0.2,0.2-0.4v-0.5c0,0,0,0,0,0c0.2,0,0.4,0,0.6,0v5h2.7C6,33.9,6.2,34,6.4,34c0.2,0,0.4-0.1,0.4-0.3h2.7l0,0v-5
				c0.2,0,0.4,0,0.6,0c0,0,0,0,0,0v0.5c0,0.2,0.1,0.3,0.2,0.4c0,0,0.1,0.1,0.1,0.1c0,0,0,0.1,0,0.1l0,0l0,0c0,0,0,0.1,0,0.1
				c0,0-0.1,0.1-0.1,0.1c-0.1,0.1-0.2,0.2-0.2,0.4v2.2c0,0.2,0.1,0.3,0.2,0.4c0,0,0.1,0.1,0.1,0.1C10.5,33.1,10.5,33.1,10.5,33.2
				L10.5,33.2L10.5,33.2L10.5,33.2z M3.8,28.6c0.1-0.1,0.2-0.1,0.4-0.2c0.2-0.2,0.5-0.3,0.8-0.3c0.3,0,0.6,0.1,0.8,0.2
				c0.2,0.1,0.3,0.1,0.5,0.2v4.4c0,0,0,0,0,0c-0.2,0-0.5,0.1-0.8,0.2c-0.1,0-0.2,0.1-0.3,0.1c-0.3,0.1-0.7,0.1-1,0.1
				c-0.2,0-0.4,0-0.6,0v-4.6C3.6,28.7,3.7,28.6,3.8,28.6L3.8,28.6z M7,28.3c0.3-0.1,0.5-0.2,0.8-0.2c0.4,0,0.6,0.1,0.8,0.3
				c0.1,0.1,0.2,0.1,0.4,0.2c0.1,0,0.2,0.1,0.3,0.1v4.6c-0.2,0-0.4,0-0.6,0c-0.3,0-0.7,0-1-0.1c-0.1,0-0.2-0.1-0.3-0.1
				c-0.3-0.1-0.6-0.2-0.8-0.2c0,0,0,0,0,0v-4.4C6.7,28.4,6.8,28.4,7,28.3L7,28.3z M10.5,32.8c-0.1-0.1-0.1-0.1-0.1-0.2v-2.2
				c0-0.1,0-0.1,0.1-0.2c0.1,0,0.1-0.1,0.2-0.2c0.1-0.1,0.1-0.2,0.1-0.3c0-0.1,0-0.2-0.1-0.3c0-0.1-0.1-0.1-0.2-0.2
				c-0.1-0.1-0.1-0.1-0.1-0.2v-0.8h-0.2l0,0c-0.4,0-0.8,0-1.1-0.1c-0.1,0-0.2-0.1-0.3-0.2c-0.2-0.2-0.5-0.3-1-0.3
				c-0.3,0-0.7,0.1-0.9,0.2c-0.2,0.1-0.4,0.1-0.5,0.1h0l0,0h0l0,0h0c-0.1,0-0.3-0.1-0.5-0.1C5.6,28,5.3,27.8,5,27.8
				c-0.4,0-0.7,0.2-1,0.3c-0.1,0.1-0.2,0.1-0.3,0.2c-0.3,0.1-0.7,0.1-1.1,0.1l0,0H2.4v0.8c0,0.1,0,0.1-0.1,0.2
				c-0.1,0-0.1,0.1-0.2,0.2C2,29.6,2,29.7,2,29.8c0,0.1,0,0.2,0.1,0.3c0,0.1,0.1,0.1,0.2,0.2c0.1,0.1,0.1,0.1,0.1,0.2v2.2
				c0,0.1,0,0.1-0.1,0.2c-0.1,0-0.1,0.1-0.2,0.2C2,33,2,33.1,2,33.2c0,0.1,0,0.2,0.1,0.3c0,0.1,0.1,0.1,0.2,0.2
				c0.1,0.1,0.1,0.1,0.1,0.2v0.7l0,0h0v0l4,0l4,0v0h0l0,0v-0.7c0-0.1,0-0.1,0.1-0.2c0.1,0,0.1-0.1,0.2-0.2c0.1-0.1,0.1-0.2,0.1-0.3
				c0-0.1,0-0.2-0.1-0.3C10.6,32.9,10.6,32.8,10.5,32.8L10.5,32.8z"/>
			<path class="st1" d="M35.2,33.2c0,0,0,0.1,0,0.1c0,0-0.1,0.1-0.1,0.1c-0.1,0.1-0.2,0.2-0.2,0.4v0.5H31h0h-3.8v-0.5
				c0-0.2-0.1-0.3-0.2-0.4c0,0-0.1-0.1-0.1-0.1c0,0,0-0.1,0-0.1l0,0l0,0c0,0,0-0.1,0-0.1c0,0,0.1-0.1,0.1-0.1
				c0.1-0.1,0.2-0.2,0.2-0.4v-2.2c0-0.2-0.1-0.3-0.2-0.4c0,0-0.1-0.1-0.1-0.1c0,0,0-0.1,0-0.1l0,0l0,0c0,0,0-0.1,0-0.1
				c0,0,0.1-0.1,0.1-0.1c0.1-0.1,0.2-0.2,0.2-0.4v-0.5c0,0,0,0,0,0c0.2,0,0.4,0,0.6,0v5h2.7c0.1,0.2,0.2,0.3,0.4,0.3
				s0.4-0.1,0.4-0.3h2.7l0,0v-5c0.2,0,0.4,0,0.6,0c0,0,0,0,0,0v0.5c0,0.2,0.1,0.3,0.2,0.4c0,0,0.1,0.1,0.1,0.1c0,0,0,0.1,0,0.1v0v0
				c0,0,0,0.1,0,0.1c0,0-0.1,0.1-0.1,0.1c-0.1,0.1-0.2,0.2-0.2,0.4v2.2c0,0.2,0.1,0.3,0.2,0.4c0,0,0.1,0.1,0.1,0.1
				C35.2,33.1,35.2,33.1,35.2,33.2L35.2,33.2L35.2,33.2L35.2,33.2z M28.4,28.6c0.1-0.1,0.2-0.1,0.4-0.2c0.2-0.2,0.5-0.3,0.8-0.3
				c0.3,0,0.6,0.1,0.8,0.2c0.2,0.1,0.3,0.1,0.5,0.2v4.4c0,0,0,0,0,0c-0.2,0-0.5,0.1-0.8,0.2c-0.1,0-0.2,0.1-0.3,0.1
				c-0.3,0.1-0.7,0.1-1,0.1c-0.2,0-0.4,0-0.6,0v-4.6C28.2,28.7,28.3,28.6,28.4,28.6L28.4,28.6z M31.6,28.3c0.3-0.1,0.5-0.2,0.8-0.2
				c0.4,0,0.6,0.1,0.8,0.3c0.1,0.1,0.2,0.1,0.4,0.2c0.1,0,0.2,0.1,0.3,0.1v4.6c-0.2,0-0.4,0-0.6,0c-0.3,0-0.7,0-1-0.1
				c-0.1,0-0.2-0.1-0.3-0.1c-0.3-0.1-0.6-0.2-0.8-0.2c0,0,0,0,0,0v-4.4C31.3,28.4,31.4,28.4,31.6,28.3L31.6,28.3z M35.1,32.8
				c-0.1-0.1-0.1-0.1-0.1-0.2v-2.2c0-0.1,0-0.1,0.1-0.2c0.1,0,0.1-0.1,0.2-0.2c0.1-0.1,0.1-0.2,0.1-0.3c0-0.1,0-0.2-0.1-0.3
				c0-0.1-0.1-0.1-0.2-0.2c-0.1-0.1-0.1-0.1-0.1-0.2v-0.8h-0.2l0,0c-0.4,0-0.8,0-1.1-0.1c-0.1,0-0.2-0.1-0.3-0.2
				c-0.2-0.2-0.5-0.3-1-0.3c-0.3,0-0.7,0.1-0.9,0.2c-0.2,0.1-0.4,0.1-0.5,0.1h0l0,0h0l0,0h0c-0.1,0-0.3-0.1-0.5-0.1
				c-0.3-0.1-0.6-0.2-0.9-0.2c-0.4,0-0.7,0.2-1,0.3c-0.1,0.1-0.2,0.1-0.3,0.2c-0.3,0.1-0.7,0.1-1.1,0.1l0,0H27v0.8
				c0,0.1,0,0.1-0.1,0.2c-0.1,0-0.1,0.1-0.2,0.2c-0.1,0.1-0.1,0.2-0.1,0.3c0,0.1,0,0.2,0.1,0.3c0,0.1,0.1,0.1,0.2,0.2
				c0.1,0.1,0.1,0.1,0.1,0.2v2.2c0,0.1,0,0.1-0.1,0.2c-0.1,0-0.1,0.1-0.2,0.2c-0.1,0.1-0.1,0.2-0.1,0.3c0,0.1,0,0.2,0.1,0.3
				c0,0.1,0.1,0.1,0.2,0.2c0.1,0.1,0.1,0.1,0.1,0.2v0.7l0,0h0v0l4,0l4,0v0h0l0,0v-0.7c0-0.1,0-0.1,0.1-0.2c0.1,0,0.1-0.1,0.2-0.2
				c0.1-0.1,0.1-0.2,0.1-0.3c0-0.1,0-0.2-0.1-0.3C35.3,32.9,35.2,32.8,35.1,32.8L35.1,32.8z"/>
			<path class="st1" d="M34.2,52.5L18.7,37.5L3.2,52.5c-1.2-2.5-2-5.5-2-8.8c0-0.1,0-3.1,0-6.6h35c0,3.5,0,6.5,0,6.6
				C36.2,47,35.4,49.9,34.2,52.5L34.2,52.5z M29.3,54c-1.2,1.2-3.2,1.2-4.4,0c-1.2-1.2-1.2-3.2,0-4.4c1.2-1.2,3.2-1.2,4.4,0
				C30.5,50.9,30.5,52.8,29.3,54L29.3,54z M15.6,44.2c0-1.7,1.4-3.1,3.1-3.1c1.7,0,3.1,1.4,3.1,3.1c0,1.7-1.4,3.1-3.1,3.1
				C17,47.3,15.6,45.9,15.6,44.2L15.6,44.2z M28.3,60.3c-4.2,3.9-8.5,5.8-9.6,6.1c-1.2-0.3-5.5-2.2-9.6-6.1C9,60.2,8.9,60.1,8.8,60
				l9.9-10.5L28.6,60C28.5,60.1,28.4,60.2,28.3,60.3L28.3,60.3z M8.2,54c-1.2-1.2-1.2-3.2,0-4.4c1.2-1.2,3.2-1.2,4.4,0
				c1.2,1.2,1.2,3.2,0,4.4C11.3,55.2,9.4,55.2,8.2,54L8.2,54z M36.2,26.2c0,1.1,0,6,0,10.3h-35c0-4.3,0-9.2,0-10.3H36.2L36.2,26.2z
				 M36.7,25.7h-36c0,0,0,17.7,0,17.9c0,7.9,4.4,13.6,8,17c4,3.7,8.5,5.9,9.9,6.2l0,0l0,0c1.4-0.3,5.9-2.5,9.9-6.2
				c3.7-3.4,8-9.1,8-17C36.7,43.4,36.7,25.7,36.7,25.7L36.7,25.7z"/>
			<path class="st1" d="M21.5,32.8C21.5,32.8,21.5,32.8,21.5,32.8c-0.1,0-0.1-0.1-0.1-0.1c0.1-0.3,0.1-0.5,0-0.7
				c-0.1-0.2-0.4-0.3-0.4-0.3c0,0-0.1,0-0.1-0.1c0,0,0-0.1,0-0.1c0-0.1,0.1-0.4,0.1-0.6c0-0.1-0.3-0.2-0.4-0.2c0,0-0.1,0-0.1-0.1
				c0,0,0-0.1,0-0.1c0-0.1,0.1-0.3,0-0.5c-0.2-0.3-0.6-0.1-0.6-0.1c0,0-0.1,0-0.1,0c0,0,0-0.1,0-0.1c0,0,0.1-0.4-0.1-0.7
				c-0.3-0.3-0.9-0.1-0.9-0.1c0,0-0.1,0-0.1,0c0,0,0-0.1,0-0.1c0,0,0.1-0.3-0.1-0.5c-0.4-0.2-0.8,0.1-0.8,0.1c0,0-0.1,0-0.1,0
				c0,0-0.1,0-0.1-0.1c0,0-0.1-0.4-0.4-0.5c-0.4-0.1-0.8,0.4-0.8,0.4c0,0-0.1,0-0.1,0c0,0-0.1,0-0.1,0c0,0-0.3-0.4-0.7-0.4
				c-0.4,0-0.5,0.4-0.5,0.4c0,0,0,0.1-0.1,0.1c0,0-0.1,0-0.1,0c0,0-0.3-0.3-0.7-0.2c-0.4,0.2-0.6,0.7-0.6,0.9l0,0
				c0,0.1-0.1,0.1-0.1,0.1c-0.1,0-0.1-0.1-0.1-0.1l0,0c0-0.2,0.2-0.8,0.7-1c0.3-0.1,0.7,0,0.8,0.2c0.1-0.1,0.3-0.4,0.6-0.4
				c0.3,0,0.6,0.2,0.8,0.4c0.2-0.1,0.5-0.4,0.9-0.4c0.3,0,0.5,0.3,0.6,0.5c0.2-0.1,0.5-0.2,0.9,0c0.2,0.1,0.3,0.4,0.2,0.6
				c0.2,0,0.7-0.1,1,0.2c0.2,0.2,0.2,0.5,0.2,0.7c0.2,0,0.5,0,0.7,0.3c0.1,0.2,0.1,0.4,0,0.5c0.1,0,0.4,0.1,0.4,0.3
				c0.1,0.2,0,0.5,0,0.6c0.1,0,0.3,0.2,0.4,0.4C21.8,32.2,21.8,32.4,21.5,32.8C21.6,32.8,21.6,32.8,21.5,32.8L21.5,32.8z"/>
		</g>
	</g>
</g>
</svg>
