<?xml version="1.0" encoding="utf-8"?>
<!-- Generator: Adobe Illustrator 27.9.0, SVG Export Plug-In . SVG Version: 6.00 Build 0)  -->
<svg version="1.0" id="Layer_1" xmlns="http://www.w3.org/2000/svg" xmlns:xlink="http://www.w3.org/1999/xlink" x="0px" y="0px"
	 viewBox="0 0 53.1 27.9" style="enable-background:new 0 0 53.1 27.9;" xml:space="preserve">
<style type="text/css">
	.st0{fill:#8F0000;}
</style>
<g>
	<g>
		<g>
			<path class="st0" d="M15.8,27.9c-0.3,0-0.5,0-0.8-0.1c-0.6-0.1-1-0.5-1.3-1c-0.5-0.9-0.3-2.1,0.3-3.8c0.7-1.9,2.8-4.7,6.4-6.3
				c0.3-1,0.7-2,1.1-3.2c0.2-0.5,0.4-0.9,0.5-1.4c-1.5,0.7-3,1.2-4.1,1.5c-3.1,0.8-3.9-1.1-4.4-2.4c-0.1-0.2-0.2-0.4-0.2-0.6
				c-0.2-0.4,0-0.8,0.4-1c0.4-0.2,0.8,0,1,0.4c0.1,0.2,0.2,0.4,0.3,0.6c0.5,1.3,0.8,1.9,2.7,1.5c1.6-0.4,3.6-1,5.6-2.4
				c2.9-5.5,7-9.3,7.3-9.5C30.6,0,31-0.1,31.2,0.1c0.3,0.1,0.4,0.4,0.4,0.7c-0.1,1.4-1.6,3.9-4.6,7.4c-0.9,1-1.8,1.9-2.8,2.5
				c-0.5,1-1,2.1-1.4,3.3c-0.3,0.7-0.5,1.4-0.7,2c2.1-0.6,4.7-0.8,7.8-0.3c0.4,0.1,0.7,0.5,0.6,0.9c-0.1,0.4-0.5,0.7-0.9,0.6
				c-3.3-0.5-6-0.2-8.1,0.6c-0.4,1.2-0.7,2.2-0.9,3.1c-0.8,2.7-1.3,4.3-2.3,5.4C17.3,27.5,16.6,27.9,15.8,27.9z M19.7,18.7
				c-2.4,1.4-3.8,3.4-4.4,4.8c-0.7,1.7-0.5,2.4-0.4,2.6c0,0.1,0.1,0.2,0.3,0.2c0.6,0.2,0.8,0.2,2-1.1c0.8-0.9,1.2-2.3,1.9-4.8
				C19.4,19.9,19.6,19.3,19.7,18.7z"/>
		</g>
		<g>
			<path class="st0" d="M32.2,21.8c-0.1,0-0.3,0-0.4-0.1c-0.3-0.2-0.5-0.6-0.3-1c0.1-0.2,1.3-2.8,3.1-5.7c0.8-1.9,1.2-3.4,1.3-4.3
				c0.1-1.1-0.3-2.3-1-2.8c-0.3-0.2-0.6-0.2-1,0c-1.6,0.8-2.8,3.5-3.1,5.4c0,0.4-0.4,0.7-0.8,0.7c-0.4,0-0.7-0.4-0.7-0.8
				c0.3-2.4,1.8-5.5,3.9-6.6c0.8-0.5,1.7-0.4,2.5,0.1c1.1,0.8,1.8,2.6,1.6,4.2c0,0.1,0,0.2,0,0.2c0.6-0.7,1.2-1.3,1.8-1.8
				c3.6-3.2,5-3.4,5.5-3.4c0.2,0,0.5,0.2,0.6,0.4s0.1,0.5,0,0.7c0,0.1-2.5,5.6-3.2,9.3c1.7-1.3,5.2-4.1,9.6-9.3
				c0.3-0.3,0.7-0.4,1-0.1c0.3,0.3,0.4,0.7,0.1,1c0,0.1-4.2,5.5-1.8,10.7c0.2,0.4,0,0.8-0.4,1c-0.4,0.2-0.8,0-1-0.4
				c-1.2-2.6-1.1-5.3-0.5-7.4c-4.7,4.9-7.6,6.5-7.8,6.6c-0.2,0.1-0.5,0.1-0.7,0s-0.4-0.4-0.4-0.7c0-2.6,1.7-7.2,2.8-9.7
				c-0.7,0.4-1.7,1.2-3,2.3c-1.5,1.3-3,3.3-4.2,5.3c-0.8,1.9-1.9,3.9-3.2,5.7C32.7,21.7,32.5,21.8,32.2,21.8z"/>
		</g>
	</g>
	<g>
		<path class="st0" d="M0.7,18.4c-0.4,0-0.7-0.3-0.7-0.7c0-0.4,0.2-0.8,0.7-0.8l9.2-1c0.4,0,0.8,0.2,0.8,0.7c0,0.4-0.2,0.8-0.7,0.8
			L0.7,18.4C0.8,18.4,0.8,18.4,0.7,18.4z"/>
	</g>
</g>
</svg>
